<svg width="31" height="25" viewBox="0 0 31 25" fill="none" xmlns="http://www.w3.org/2000/svg">
<path d="M24.8331 20.6646C24.0954 20.648 23.3761 20.4302 22.7531 20.0346C22.1028 19.595 21.5054 19.0816 20.9731 18.5046C20.5331 18.0646 19.8031 17.3246 19.5231 17.3246C19.2431 17.3246 19.0431 18.2446 19.0531 18.8946C19.0574 19.3433 18.8891 19.7765 18.5831 20.1046C18.2352 20.3888 17.8105 20.5629 17.3631 20.6046H15.4431C12.6836 20.5439 10.0412 19.477 8.01315 17.6046C4.33315 14.2346 1.17315 7.79462 1.04315 7.51462C0.919148 7.2807 0.86722 7.01529 0.893916 6.75189C0.920612 6.48849 1.02474 6.2389 1.19315 6.03462C1.57428 5.71676 2.05693 5.54641 2.55315 5.55462H6.63315H6.75315C7.09073 5.60387 7.4143 5.72308 7.70315 5.90462C7.97496 6.08688 8.1926 6.33907 8.33315 6.63462C8.76432 7.55768 9.25883 8.44981 9.81315 9.30462C11.1231 11.3046 11.7031 11.7646 11.9131 11.8646C12.1468 10.9269 12.2111 9.95497 12.1031 8.99462C12.1382 8.55722 12.0661 8.11788 11.8931 7.71462C11.6736 7.53899 11.404 7.43746 11.1231 7.42462L10.3931 6.73462C10.2531 6.07462 10.9831 5.50462 11.4931 5.28462C12.5109 4.96571 13.5787 4.8369 14.6431 4.90462H15.3531C16.0752 4.88581 16.7969 4.95295 17.5031 5.10462C19.2031 5.46462 19.1431 6.83462 19.0731 8.41462C19.0731 8.87462 19.0231 9.41462 19.0231 10.0346C19.0231 10.1846 19.0231 10.3446 19.0231 10.5146C18.9838 10.95 19.0142 11.3888 19.1131 11.8146C19.9457 11.1182 20.6468 10.2782 21.1831 9.33462C21.7621 8.44236 22.2703 7.50617 22.7031 6.53462C22.835 6.22734 23.0609 5.96981 23.3485 5.7991C23.636 5.62838 23.9702 5.55329 24.3031 5.58462H28.5831C28.7095 5.57256 28.8368 5.57256 28.9631 5.58462C29.9631 5.58462 30.5531 5.87462 30.7931 6.43462C31.0331 6.99462 30.9632 8.09462 28.4331 11.0446L27.4331 12.1746C26.9486 12.6451 26.5314 13.1801 26.1931 13.7646C26.5719 14.1952 27.0018 14.578 27.4731 14.9046C28.6224 15.7706 29.6339 16.8057 30.4731 17.9746C30.67 18.2019 30.7987 18.4801 30.8447 18.7772C30.8907 19.0744 30.852 19.3784 30.7331 19.6546C30.5236 19.9605 30.2432 20.2112 29.9158 20.3853C29.5885 20.5594 29.2239 20.6518 28.8531 20.6546L25.0631 20.7046L24.8331 20.6646ZM19.5231 15.8246C20.4231 15.8246 21.2031 16.6146 22.0331 17.4446C22.4815 17.9342 22.9848 18.3704 23.5331 18.7446C23.9478 19.0204 24.4352 19.1666 24.9331 19.1646H25.0331L28.8331 19.1146C29.0206 19.1039 29.2041 19.0563 29.3731 18.9746L29.2731 18.8146C28.5162 17.783 27.6134 16.8668 26.5931 16.0946C25.4031 15.0946 24.7931 14.6246 24.7231 13.8546C24.6531 13.0846 25.2131 12.4146 26.3331 11.1446L27.3331 10.0346C28.1774 9.17347 28.8704 8.17616 29.3831 7.08462C29.16 7.07139 28.9363 7.07139 28.7131 7.08462H24.3431C24.2641 7.06695 24.1822 7.06695 24.1031 7.08462C23.6403 8.14606 23.0883 9.16638 22.4531 10.1346C20.5631 12.9546 19.6731 13.3346 19.0431 13.3346C18.8478 13.3346 18.6555 13.2865 18.4831 13.1946C17.4831 12.6246 17.4831 11.3546 17.5431 10.4346C17.5431 10.2846 17.5431 10.1346 17.5431 10.0046C17.5431 9.35462 17.5431 8.79462 17.5931 8.31462C17.6731 6.63462 17.5931 6.62462 17.2131 6.53462C16.6008 6.41363 15.9771 6.35998 15.3531 6.37462H14.6631C14.0282 6.3615 13.3932 6.39492 12.7631 6.47462C12.8586 6.54492 12.9428 6.6292 13.0131 6.72462C13.4256 7.37496 13.6313 8.13502 13.6031 8.90462C13.7331 10.5546 13.6631 12.7046 12.6031 13.2246C12.4154 13.3125 12.2104 13.3569 12.0031 13.3546C11.0731 13.3546 10.1531 12.4746 8.58315 10.0946C7.98067 9.18333 7.44269 8.231 6.97315 7.24462L6.89315 7.14462C6.79216 7.09314 6.68444 7.05611 6.57315 7.03462H2.57315H2.50315C3.09315 8.25462 5.89315 13.6546 9.02315 16.4846C10.7807 18.0993 13.0579 19.0322 15.4431 19.1146H17.2931C17.3875 19.0945 17.4784 19.0608 17.5631 19.0146C17.5631 19.0146 17.5631 19.0146 17.5631 18.9246C17.5631 18.6546 17.5631 16.3246 19.1431 15.9246C19.2654 15.8764 19.393 15.8429 19.5231 15.8246Z" fill="#192144"/>
</svg>
