<svg width="25" height="25" viewBox="0 0 25 25" fill="none" xmlns="http://www.w3.org/2000/svg">
<path d="M22.1242 3.56289C21.9155 3.38993 21.6639 3.27666 21.3961 3.23509C21.1283 3.19352 20.8542 3.22519 20.6029 3.32676L3.26385 10.3264C2.98366 10.4416 2.74512 10.6392 2.57989 10.8931C2.41466 11.147 2.33055 11.4451 2.33874 11.748C2.34693 12.0508 2.44703 12.3439 2.62574 12.5885C2.80445 12.8331 3.05333 13.0176 3.33934 13.1174L7.08063 14.4161L9.10804 21.1187C9.11192 21.1322 9.1245 21.141 9.1303 21.1535C9.15119 21.207 9.18169 21.2562 9.2203 21.2987C9.27896 21.3642 9.35469 21.4121 9.43901 21.4371C9.44869 21.441 9.45546 21.4497 9.46514 21.4516H9.47095L9.47385 21.4526C9.54872 21.4687 9.62652 21.4647 9.69934 21.441C9.70708 21.439 9.71482 21.439 9.72353 21.4361C9.79344 21.4116 9.85671 21.3712 9.90837 21.3181C9.91417 21.3113 9.92385 21.3103 9.92966 21.3045L12.8455 18.0858L17.1006 21.381C17.359 21.5832 17.6774 21.6926 18.0055 21.6926C18.7158 21.6926 19.3284 21.1951 19.4745 20.5013L22.6313 4.99999C22.6848 4.73683 22.6659 4.46408 22.5766 4.21082C22.4873 3.95756 22.3309 3.73328 22.1242 3.56192V3.56289ZM10.1658 15.6887L9.48159 19.0148L8.05417 14.2942L15.1332 10.6071L10.2974 15.4439C10.2304 15.5108 10.1847 15.5959 10.1658 15.6887ZM18.5261 20.3068C18.5079 20.3945 18.4675 20.4761 18.4087 20.5437C18.3499 20.6114 18.2747 20.6627 18.1903 20.6929C18.108 20.7246 18.0188 20.7343 17.9316 20.721C17.8444 20.7078 17.7621 20.6721 17.6929 20.6174L13.0835 17.0474C12.9872 16.973 12.8663 16.9377 12.7451 16.9485C12.6238 16.9592 12.5111 17.0153 12.4293 17.1055L10.4 19.3419L11.0832 16.0255L18.0403 9.06741C18.1218 8.98566 18.1713 8.87749 18.1801 8.76241C18.1888 8.64733 18.1561 8.53292 18.0879 8.43983C18.0197 8.34673 17.9204 8.28109 17.8081 8.25473C17.6957 8.22838 17.5776 8.24306 17.4751 8.29612L7.44643 13.52L3.65579 12.2019C3.55528 12.1687 3.46762 12.105 3.40501 12.0197C3.34239 11.9344 3.30793 11.8316 3.30643 11.7258C3.30161 11.619 3.33014 11.5134 3.38806 11.4236C3.44597 11.3337 3.53041 11.2642 3.62966 11.2245L20.9658 4.22483C21.0546 4.18708 21.1522 4.17487 21.2476 4.18958C21.343 4.20428 21.4324 4.24531 21.5058 4.30805C21.5787 4.36707 21.6338 4.44521 21.6649 4.53373C21.696 4.62225 21.7019 4.71767 21.6819 4.80934L18.5261 20.3077V20.3068Z" fill="black"/>
</svg>
