<svg width="25" height="25" viewBox="0 0 25 25" fill="none" xmlns="http://www.w3.org/2000/svg">
<path d="M15.6028 12.2006L11.248 9.29735C11.1934 9.26101 11.13 9.24012 11.0645 9.23693C10.999 9.23373 10.9339 9.24835 10.876 9.27921C10.818 9.30938 10.7695 9.35502 10.7359 9.41107C10.7022 9.46712 10.6848 9.53139 10.6855 9.59675V15.4032C10.6848 15.4686 10.7022 15.5328 10.7359 15.5889C10.7695 15.6449 10.818 15.6906 10.876 15.7207C10.9294 15.7484 10.9883 15.7639 11.0484 15.7661C11.1201 15.7674 11.1902 15.7451 11.248 15.7026L15.6028 12.7994C15.6534 12.7675 15.6951 12.7233 15.724 12.671C15.7529 12.6186 15.7681 12.5598 15.7681 12.5C15.7681 12.4402 15.7529 12.3813 15.724 12.329C15.6951 12.2766 15.6534 12.2325 15.6028 12.2006ZM11.4113 14.7228V10.2772L14.75 12.5L11.4113 14.7228ZM21.7994 7.31046C21.7244 7.03384 21.5863 6.77841 21.3957 6.56429C21.2052 6.35017 20.9676 6.18322 20.7016 6.07659C17.6351 4.89715 12.7087 4.9153 12.5 4.9153C12.2913 4.9153 7.36491 4.89715 4.29837 6.07659C4.03235 6.18322 3.79473 6.35017 3.60422 6.56429C3.41372 6.77841 3.27555 7.03384 3.20059 7.31046C2.97378 8.1905 2.7016 9.80542 2.7016 12.5C2.7016 15.1945 2.97378 16.8095 3.20059 17.6895C3.27555 17.9661 3.41372 18.2215 3.60422 18.4357C3.79473 18.6498 4.03235 18.8167 4.29837 18.9234C7.36491 20.1028 12.2913 20.0847 12.5 20.0847H12.5635C13.1895 20.0847 17.7893 20.0484 20.7016 18.9234C20.9676 18.8167 21.2052 18.6498 21.3957 18.4357C21.5863 18.2215 21.7244 17.9661 21.7994 17.6895C22.0262 16.8095 22.2984 15.1945 22.2984 12.5C22.2984 9.80542 22.0262 8.1905 21.7994 7.31046ZM21.0917 17.508C21.0481 17.6732 20.9663 17.8258 20.8528 17.9534C20.7393 18.0811 20.5974 18.1803 20.4385 18.2429C17.499 19.377 12.5544 19.3588 12.5 19.3588C12.4456 19.3588 7.50099 19.377 4.56148 18.2429C4.40258 18.1803 4.26066 18.0811 4.14718 17.9534C4.0337 17.8258 3.95185 17.6732 3.90825 17.508C3.69051 16.6643 3.42741 15.1129 3.42741 12.5C3.42741 9.88707 3.69051 8.33566 3.90825 7.49191C3.95185 7.32676 4.0337 7.17419 4.14718 7.04653C4.26066 6.91887 4.40258 6.8197 4.56148 6.75703C7.50099 5.62296 12.4456 5.64111 12.5 5.64111C12.5544 5.64111 17.499 5.62296 20.4385 6.75703C20.5974 6.8197 20.7393 6.91887 20.8528 7.04653C20.9663 7.17419 21.0481 7.32676 21.0917 7.49191C21.3095 8.33566 21.5726 9.88707 21.5726 12.5C21.5726 15.1129 21.3095 16.6643 21.0917 17.508Z" fill="black"/>
</svg>
