<svg width="25" height="25" fill="none" xmlns="http://www.w3.org/2000/svg"><path d="M22.124 3.563a1.502 1.502 0 0 0-1.521-.236l-17.34 7a1.494 1.494 0 0 0 .076 2.79l3.742 1.3 2.027 6.702c.004.013.016.022.022.035a.475.475 0 0 0 .309.284c.01.003.016.012.026.014H9.474a.434.434 0 0 0 .225-.011c.008-.002.016-.002.025-.005a.479.479 0 0 0 .184-.118c.006-.007.016-.008.022-.014l2.915-3.218 4.256 3.295c.258.202.576.312.905.312.71 0 1.322-.498 1.468-1.192L22.631 5a1.484 1.484 0 0 0-.507-1.438ZM10.166 15.689l-.684 3.326-1.428-4.72 7.08-3.688-4.837 4.837a.482.482 0 0 0-.131.245Zm8.36 4.618a.523.523 0 0 1-.336.386.507.507 0 0 1-.497-.076l-4.61-3.57a.483.483 0 0 0-.654.058L10.4 19.343l.683-3.316 6.957-6.959a.484.484 0 0 0-.565-.77L7.446 13.52l-3.79-1.318a.51.51 0 0 1-.35-.476.515.515 0 0 1 .324-.502l17.336-7a.518.518 0 0 1 .54.084.506.506 0 0 1 .176.501l-3.156 15.499v-.001Z" fill="#000"/></svg>