<svg width="26" height="26" fill="none" xmlns="http://www.w3.org/2000/svg"><g opacity=".7" fill="#132576"><path d="M22.1 21.97v-3.25c0-.91-.13-1.82-.65-2.73-.52-.91-1.17-1.69-2.08-2.21-.91-.65-2.86-.78-3.77-.78l-2.08 2.21.78 1.69v3.9L13 22.23l-1.3-1.43v-3.9l.91-1.69L10.4 13c-1.04 0-2.99.13-3.9.78-.91.52-1.43 1.3-1.95 2.21-.52.91-.65 1.69-.65 2.73v3.25S7.28 23.4 13 23.4s9.1-1.43 9.1-1.43ZM13 2.73c-2.47 0-3.9 2.34-3.51 4.94.39 2.6 1.69 4.42 3.51 4.42 1.82 0 3.12-1.82 3.51-4.42.39-2.73-1.04-4.94-3.51-4.94Z"/></g></svg>