<svg class="card-user__like-icon" width="12" height="13" viewBox="0 0 12 13" fill="none" xmlns="http://www.w3.org/2000/svg"><g clip-path="url(#a)"><path fill-rule="evenodd" clip-rule="evenodd" d="m6 5.67.67-1.41c.17-.35.46-.85.86-1.26.4-.4.89-.67 1.47-.67a2.28 2.28 0 0 1 2.25 2.3c0 .95-.41 1.62-1.4 2.65-.25.27-.54.55-.86.86-.83.82-1.86 1.84-2.99 3.2-1.12-1.36-2.16-2.38-2.99-3.2a44.46 44.46 0 0 1-.86-.86C1.17 6.25.75 5.58.75 4.63c0-1.26 1-2.3 2.25-2.3.58 0 1.06.27 1.47.67.4.4.7.9.86 1.26L6 5.65Zm.3 6.53a.39.39 0 0 1-.3.14.37.37 0 0 1-.3-.14c-1.2-1.5-2.28-2.57-3.18-3.45C.98 7.22 0 6.25 0 4.63c0-1.7 1.34-3.09 3-3.09 1.2 0 2.04.83 2.55 1.58.2.29.35.57.45.78.13-.27.28-.53.45-.78C6.96 2.37 7.8 1.54 9 1.54c1.66 0 3 1.38 3 3.09 0 1.63-.97 2.59-2.52 4.12-.9.88-1.99 1.95-3.19 3.45Z" fill="#192144"/></g><defs><clipPath id="a"><path fill="#fff" transform="translate(0 .79)" d="M0 0h12v12H0z"/></clipPath></defs></svg>
