<svg width="13" height="13" viewBox="0 0 13 13" fill="none" xmlns="http://www.w3.org/2000/svg">
<g clip-path="url(#clip0_22296_1577)">
<path d="M3.25532 0.983826C4.94809 0.983826 6.31915 2.33132 6.31915 3.99362C6.31915 2.33132 7.69022 0.983826 9.38298 0.983826C11.0757 0.983826 12.4468 2.33132 12.4468 3.99362C12.4468 6.49896 9.96971 7.3827 6.61941 11.3707C6.58252 11.4145 6.53654 11.4497 6.48468 11.4738C6.43283 11.498 6.37633 11.5105 6.31915 11.5105C6.26197 11.5105 6.20548 11.498 6.15362 11.4738C6.10176 11.4497 6.05578 11.4145 6.0189 11.3707C2.6686 7.3827 0.19149 6.49896 0.19149 3.99362C0.19149 2.33132 1.56255 0.983826 3.25532 0.983826Z" fill="#F02323"/>
</g>
<defs>
<clipPath id="clip0_22296_1577">
<rect width="12.2553" height="12.2849" fill="white" transform="translate(0.19149 0.216003)"/>
</clipPath>
</defs>
</svg>
