<svg width="19" height="17" viewBox="0 0 19 17" fill="none" xmlns="http://www.w3.org/2000/svg">
<path fill-rule="evenodd" clip-rule="evenodd" d="M9.5 1.08594C6.70356 1.08594 3.90038 1.55861 2.88327 2.50071C2.0394 3.2823 1.75809 4.66308 1.66327 5.53732C1.66327 5.53732 1.6502 5.62371 1.6502 5.66087C1.6502 6.0037 1.9445 6.27865 2.30432 6.27865C2.34684 6.27865 3.92007 6.15816 4.86856 6.08404C4.89139 6.08091 4.91439 6.07785 4.93722 6.0717C5.29048 6.06248 5.5751 5.79058 5.5751 5.45392L5.57827 4.23679C5.57827 3.85993 5.9022 3.55716 6.30126 3.55716H12.6987C13.0978 3.55716 13.4218 3.8599 13.4218 4.23679L13.425 5.45392C13.425 5.79058 13.7096 6.06248 14.0628 6.0717C14.0855 6.07788 14.1085 6.08091 14.1316 6.08404C15.0801 6.15812 16.6533 6.27865 16.6957 6.27865C17.0554 6.27865 17.3499 6.0037 17.3499 5.66087C17.3499 5.62371 17.3368 5.53732 17.3368 5.53732C17.2419 4.66308 16.961 3.28234 16.1171 2.50071C15.0996 1.55861 12.2964 1.08594 9.5 1.08594ZM9.5 9.11752C8.77716 9.11752 8.19169 9.67043 8.19169 10.3531C8.19169 11.0358 8.77716 11.5887 9.5 11.5887C10.2228 11.5887 10.8083 11.0358 10.8083 10.3531C10.8083 9.67043 10.2228 9.11752 9.5 9.11752ZM8.51879 6.3373V5.56506C8.51879 5.1388 8.15241 4.79282 7.70112 4.79282C7.24982 4.79282 6.88345 5.13884 6.88345 5.56506V6.3373L2.471 10.7887C2.16694 11.0698 1.97719 11.462 1.97719 11.8946V13.1333C1.97719 13.816 2.56269 14.3689 3.2855 14.3689H3.6126V15.1412C3.6126 15.5675 3.979 15.9134 4.4303 15.9134C4.8816 15.9134 5.24797 15.5675 5.24797 15.1412V14.3689H13.752V15.1412C13.752 15.5675 14.1183 15.9134 14.5698 15.9134C15.0211 15.9134 15.3874 15.5675 15.3874 15.1412V14.3689H15.7145C16.4373 14.3689 17.0227 13.816 17.0227 13.1333V11.8946C17.0227 11.462 16.833 11.0698 16.5289 10.7887L12.1167 6.3373V5.56506C12.1167 5.1388 11.7502 4.79282 11.2989 4.79282C10.8476 4.79282 10.4813 5.13884 10.4813 5.56506V6.3373H8.51879ZM9.5 7.88189C10.9457 7.88189 12.1167 8.98777 12.1167 10.3531C12.1167 11.7185 10.9457 12.8244 9.5 12.8244C8.05431 12.8244 6.88341 11.7185 6.88341 10.3531C6.88341 8.98774 8.05431 7.88189 9.5 7.88189Z" fill="#FFBD30"/>
</svg>
