<svg width="202" height="50" fill="none" xmlns="http://www.w3.org/2000/svg"><path d="M93.996 12.644 53.899 50 39.264 2.11l54.732 10.534Z" fill="#FF8D30"/><ellipse cx="94.727" cy="33.897" rx="4.353" ry="4.252" fill="#88BFEB"/><ellipse cx="111.867" cy="21.531" rx="15.174" ry="14.821" fill="#EB9898"/><path fill="#72A73E" d="m102.938 23.303 52.793-19.082 9.949 26.26-52.793 19.083z"/><ellipse cx="110.041" cy="40.644" rx="2.551" ry="2.491" fill="#FFBD30"/><ellipse rx="22.779" ry="9.039" transform="matrix(.97092 .2394 -.25022 .96819 159.093 33.393)" fill="#8EC7F5"/><ellipse cx="176.368" cy="12.21" rx="2.594" ry="2.534" fill="#FFBD30"/><ellipse cx="184.46" cy="9.2" rx="2.594" ry="2.534" fill="#FFBD30"/><path d="M4.026 42.082h6.013v2.952a1 1 0 0 1-1 1H5.026a1 1 0 0 1-1-1v-2.952ZM41.209 42.082h6.013v2.952a1 1 0 0 1-1 1h-4.013a1 1 0 0 1-1-1v-2.952Z" fill="#1D2959"/><path fill-rule="evenodd" clip-rule="evenodd" d="M28.82 3.498c-1.173-.458-2.454-.825-3.384-.807-.875.017-2.073.388-3.167.833-.612.25-1.216.525-1.799.836l-.004.003a1.44 1.44 0 0 1-1.938-.55 1.39 1.39 0 0 1 .559-1.906 24.342 24.342 0 0 1 2.09-.974C22.32.467 23.937.03 25.38.001c1.535-.03 3.267.412 4.492.89a21.37 21.37 0 0 1 2.24 1.01h.001c.693.369.951 1.22.577 1.901-.373.678-1.25.926-1.937.565a21.707 21.707 0 0 0-1.932-.869Z" fill="#8A4A38"/><path fill-rule="evenodd" clip-rule="evenodd" d="M19.269 1.726c-.64 0-1.159.519-1.159 1.158v.707c0 .533.433.965.966.965h.026v3.651h1.01V4.53h-.25a1.415 1.415 0 0 0-.271-2.804h-.322ZM31.943 1.726c.64 0 1.158.519 1.158 1.158v.707a.965.965 0 0 1-.965.965h-.026v3.651H31.1V4.53h.249a1.415 1.415 0 0 1 .272-2.804h.322Z" fill="#F6EF3E"/><path d="M0 16.762a9 9 0 0 1 9-9h33.253a9 9 0 0 1 9 9v25.32H0v-25.32Z" fill="#8A4A38"/><ellipse cx="8.053" cy="33.247" rx="5.021" ry="4.906" fill="#EF9A9A"/><ellipse rx="4.809" ry="9.257" transform="matrix(.7051 -.7091 .72546 .68826 39.477 33.416)" fill="#93C6EB"/><path fill="#C2DEA3" d="M19.754 21.316 31.119 9.5l6.732 6.179-11.364 11.815z"/><rect width="8.335" height="6.246" rx="1" transform="matrix(.73793 .67488 -.69199 .7219 10.584 13.261)" fill="#C49A6C"/><path fill="#F57B20" d="M10.039 23.05h7.068v20h-7.068z"/><path d="M10.04 6.47h7.068v17.294c0 1.942-1.593 3.516-3.534 3.516-1.942 0-3.535-1.574-3.535-3.516V6.47Z" fill="#F6A725"/><path fill="#F6EF3E" d="M9.06 21.479h9.035v1.964H9.06z"/><path fill="#F57B20" d="M34.152 23.05h7.068v20h-7.068z"/><path d="M34.152 6.47h7.068v17.294c0 1.942-1.592 3.516-3.534 3.516-1.942 0-3.534-1.574-3.534-3.516V6.47Z" fill="#F6A725"/><path fill="#F6EF3E" d="M33.172 21.479h9.035v1.964h-9.035z"/><g filter="url(#a)" fill="#fff"><path d="M198.541 22.687c.973-.604 1.459-1.536 1.459-2.794 0-1.645-.7-2.937-2.101-3.877-1.361-.957-2.966-1.435-4.813-1.435-1.809 0-3.463.52-4.96 1.56-1.478 1.025-2.217 2.392-2.217 4.104 0 .638.204 1.166.612 1.586.409.403.992.604 1.751.604.739 0 1.303-.201 1.692-.604.408-.42.613-.948.613-1.586-.039-.487.126-.982.496-1.485.369-.52 1.04-.78 2.013-.78.816.016 1.4.218 1.75.604.37.386.535.772.496 1.158 0 .268-.097.537-.292.805a2.678 2.678 0 0 1-.612.63c-.195.15-.516.369-.963.654-.448.285-.759.487-.934.604-1.011.722-1.517 1.679-1.517 2.87 0 .588.214 1.083.642 1.486.447.386 1.041.578 1.78.578.739 0 1.322-.192 1.75-.578.447-.403.671-.898.671-1.486 0-.252.049-.486.146-.705.097-.218.253-.42.467-.604.233-.184.428-.336.583-.453.175-.117.428-.269.759-.453a14.3 14.3 0 0 0 .729-.403ZM173.612 27.987l5.167-6.25c.53-.754 1.249-1.174 2.158-1.26.908-.103 1.703.111 2.385.643.681.531 1.003 1.243.965 2.135v8.95c0 .567-.227 1.047-.682 1.441-.435.377-.965.566-1.589.566-.625 0-1.164-.189-1.619-.566-.435-.394-.653-.874-.653-1.44V26.65l-5.167 6.25c-.53.755-1.249 1.175-2.157 1.26-.909.103-1.704-.11-2.385-.642-.682-.532-1.003-1.244-.966-2.135v-8.926c0-.566.218-1.046.653-1.44a2.39 2.39 0 0 1 1.619-.592c.624 0 1.154.197 1.59.592.454.394.681.875.681 1.44v5.53Z"/><path fill-rule="evenodd" clip-rule="evenodd" d="M150.381 32.118v-9.71c0-.56-.239-1.04-.716-1.44a2.342 2.342 0 0 0-1.634-.629c-.611 0-1.146.21-1.604.629-.459.4-.688.88-.688 1.44v-.236c-.229-.524-.688-.969-1.376-1.335-.687-.384-1.471-.576-2.35-.576-1.719 0-3.305.62-4.757 1.858-1.413 1.24-2.12 2.94-2.12 5.104 0 2.216.697 3.935 2.092 5.157 1.394 1.221 2.99 1.832 4.785 1.832.879 0 1.653-.157 2.322-.471.668-.332 1.155-.724 1.461-1.178.115.471.382.864.803 1.178.42.296.897.445 1.432.445a2.4 2.4 0 0 0 1.634-.602c.477-.402.716-.89.716-1.466Zm-7.329-1.785c1.566 0 2.836-1.343 2.836-3s-1.27-3-2.836-3c-1.566 0-2.836 1.343-2.836 3s1.27 3 2.836 3Z"/><path d="M129.097 25.37v-2.806c0-.57.236-1.055.709-1.452a2.433 2.433 0 0 1 1.656-.622c.631 0 1.183.207 1.656.622.473.397.709.881.709 1.452v9.616c0 .57-.236 1.054-.709 1.452-.454.397-1.006.596-1.656.596-.65 0-1.212-.199-1.685-.596-.454-.398-.68-.881-.68-1.452v-2.848h-5.115v2.848c0 .57-.236 1.054-.709 1.452-.454.397-1.006.596-1.656.596-.65 0-1.212-.199-1.685-.596-.453-.398-.68-.881-.68-1.452v-9.616c0-.57.236-1.055.709-1.452a2.433 2.433 0 0 1 1.656-.622c.631 0 1.183.207 1.656.622.473.397.709.881.709 1.452v2.806h5.115ZM116.879 20.49c.463 0 .86.172 1.191.515.331.344.496 1.136.496 1.617 0 .481-.165.979-.496 1.322-.331.344-.728.465-1.191.465h-3.964v7.82c0 1.48-1.331 2-2.666 2-1.239 0-2.421-.657-2.421-1.985l.041-11.754h9.01ZM88.598 14.58v17.463c0 .576-.32 1.064-.763 1.465-.425.402-1.093.602-1.702.602-.61 0-1.491-.2-1.935-.602a1.94 1.94 0 0 1-.637-1.465v-13.52h-7.133v13.52c0 .576-.221 1.064-.665 1.465-.424.402-1.29.602-1.9.602-.609 0-1.408-.2-1.851-.602a1.94 1.94 0 0 1-.638-1.465V14.58h17.224ZM104.385 32.087c-1.443 1.323-3.373 1.985-5.791 1.985s-4.338-.662-5.76-1.985c-1.463-1.344-2.195-3.024-2.195-5.04 0-2.034.732-3.714 2.196-5.038 1.421-1.324 3.34-1.986 5.759-1.986 2.418 0 4.348.662 5.791 1.986 1.442 1.344 2.163 3.023 2.163 5.039 0 2.015-.721 3.695-2.163 5.039Zm-3.755-7.114a2.478 2.478 0 0 0-1.495-.74 3.132 3.132 0 0 0-1.655.147c-.509.198-.944.534-1.304 1.008-.34.474-.488 1.028-.446 1.66 0 .83.265 1.521.796 2.075.551.533 1.24.8 2.068.8.848 0 1.538-.257 2.068-.77.53-.534.796-1.236.796-2.105 0-.83-.276-1.522-.828-2.075ZM157.154 20.425c2.712 0 9.938.04 9.938.04s.006 8.633.006 11.65c0 .58-.244 1.079-.732 1.498-.466.4-.887.6-1.596.6-.71 0-1.071.052-1.559-.347-.466-.42-.894-1.172-.894-1.751v-7.793h-3.291c0 5.586 0 6.813-2.105 8.812-.776.719-1.773 1.079-2.993 1.079-.731 0-1.161-.172-1.627-.571-.465-.42-.827-1.09-.827-1.71 0-1.332.286-1.863 1.018-2.733 2.099 0 2.008-.497 1.877-4.278v-2.398c.022-.58.131-2.098.131-2.098h2.654ZM196.194 31.275c0 1.622-1.406 2.937-3.141 2.937s-3.141-1.315-3.141-2.937c0-1.622 1.406-2.938 3.141-2.938s3.141 1.316 3.141 2.938Z"/></g><defs><filter id="a" x="69.374" y="13.581" width="132.626" height="23.647" filterUnits="userSpaceOnUse" color-interpolation-filters="sRGB"><feFlood flood-opacity="0" result="BackgroundImageFix"/><feColorMatrix in="SourceAlpha" values="0 0 0 0 0 0 0 0 0 0 0 0 0 0 0 0 0 0 127 0" result="hardAlpha"/><feOffset dy="1"/><feGaussianBlur stdDeviation="1"/><feColorMatrix values="0 0 0 0 0 0 0 0 0 0 0 0 0 0 0 0 0 0 0.3 0"/><feBlend in2="BackgroundImageFix" result="effect1_dropShadow_22296_1930"/><feBlend in="SourceGraphic" in2="effect1_dropShadow_22296_1930" result="shape"/></filter></defs></svg>