<svg width="17" height="14" viewBox="0 0 17 14" fill="none" xmlns="http://www.w3.org/2000/svg">
<path d="M1.01661 2.32528L7.76661 6.55572C7.99341 6.69747 8.28681 6.76467 8.58201 6.76467C8.87721 6.76467 9.17061 6.69747 9.39741 6.55572L16.1474 2.32528C16.5875 2.04913 17.0033 0.974976 16.196 0.974976H0.968909C0.161609 0.974976 0.577409 2.04913 1.01661 2.32528ZM16.3517 4.63842L9.39741 8.86677C9.09141 9.05367 8.87721 9.07572 8.58201 9.07572C8.28681 9.07572 8.07261 9.05367 7.76661 8.86677C7.46061 8.67987 1.34691 4.94082 0.847409 4.63737C0.496409 4.42317 0.500009 4.67412 0.500009 4.86732V12.525C0.500009 12.966 1.00941 13.575 1.40001 13.575H15.8C16.1906 13.575 16.7 12.966 16.7 12.525V4.86837C16.7 4.67517 16.7036 4.42422 16.3517 4.63842Z" fill="#161C35"/>
</svg>
