<svg width="32" height="32" viewBox="0 0 32 32" fill="none" xmlns="http://www.w3.org/2000/svg">
<path d="M29.2599 3.68657C28.9724 3.44827 28.6258 3.29221 28.2568 3.23494C27.8878 3.17766 27.5102 3.2213 27.1639 3.36124L3.27462 13.0052C2.88858 13.1639 2.55992 13.4362 2.33226 13.786C2.10461 14.1358 1.98874 14.5466 2.00002 14.9638C2.0113 15.381 2.14921 15.7849 2.39544 16.1219C2.64167 16.4589 2.98457 16.713 3.37862 16.8506L8.53328 18.6399L11.3266 27.8746C11.3319 27.8932 11.3493 27.9052 11.3573 27.9226C11.3861 27.9963 11.4281 28.064 11.4813 28.1226C11.5621 28.2128 11.6664 28.2789 11.7826 28.3132C11.7959 28.3186 11.8053 28.3306 11.8186 28.3332H11.8266L11.8306 28.3346C11.9338 28.3568 12.041 28.3513 12.1413 28.3186C12.1519 28.3159 12.1626 28.3159 12.1746 28.3119C12.2709 28.2781 12.3581 28.2224 12.4293 28.1492C12.4373 28.1399 12.4506 28.1386 12.4586 28.1306L16.4759 23.6959L22.3386 28.2359C22.6946 28.5146 23.1333 28.6652 23.5853 28.6652C24.5639 28.6652 25.4079 27.9799 25.6093 27.0239L29.9586 5.66657C30.0324 5.30401 30.0064 4.92821 29.8833 4.57927C29.7603 4.23034 29.5448 3.92134 29.2599 3.68524V3.68657ZM12.7839 20.3932L11.8413 24.9759L9.87461 18.4719L19.6279 13.3919L12.9653 20.0559C12.873 20.1481 12.8099 20.2654 12.7839 20.3932ZM24.3026 26.7559C24.2776 26.8768 24.2219 26.9893 24.1409 27.0824C24.0598 27.1756 23.9562 27.2463 23.8399 27.2879C23.7265 27.3316 23.6037 27.3449 23.4835 27.3267C23.3633 27.3085 23.25 27.2593 23.1546 27.1839L16.8039 22.2652C16.6712 22.1628 16.5047 22.1141 16.3376 22.1289C16.1706 22.1437 16.0152 22.221 15.9026 22.3452L13.1066 25.4266L14.0479 20.8572L23.6333 11.2706C23.7455 11.158 23.8138 11.0089 23.8259 10.8504C23.8379 10.6918 23.7928 10.5342 23.6989 10.4059C23.6049 10.2776 23.4681 10.1872 23.3133 10.1509C23.1585 10.1146 22.9958 10.1348 22.8546 10.2079L9.03728 17.4052L3.81462 15.5892C3.67614 15.5435 3.55537 15.4558 3.4691 15.3382C3.38283 15.2206 3.33535 15.0791 3.33328 14.9332C3.32664 14.7861 3.36594 14.6406 3.44574 14.5168C3.52554 14.3931 3.64188 14.2972 3.77862 14.2426L27.6639 4.59857C27.7863 4.54657 27.9208 4.52975 28.0523 4.55001C28.1837 4.57027 28.3069 4.6268 28.4079 4.71324C28.5084 4.79456 28.5843 4.90221 28.6272 5.02417C28.6701 5.14613 28.6782 5.27761 28.6506 5.40391L24.3026 26.7572V26.7559Z" fill="black"/>
</svg>
