<svg width="202" height="50" viewBox="0 0 202 50" fill="none" xmlns="http://www.w3.org/2000/svg">
<path d="M93.9956 12.6435L53.899 50L39.2637 2.10889L93.9956 12.6435Z" fill="#FF8D30"/>
<ellipse cx="94.7273" cy="33.8974" rx="4.353" ry="4.25194" fill="#88BFEB"/>
<ellipse cx="111.867" cy="21.5315" rx="15.1738" ry="14.8215" fill="#EB9898"/>
<rect width="56.1361" height="28.0819" transform="matrix(0.940449 -0.339936 0.354277 0.93514 102.938 23.3032)" fill="#72A73E"/>
<ellipse cx="110.041" cy="40.6437" rx="2.55056" ry="2.49134" fill="#FFBD30"/>
<ellipse rx="22.7786" ry="9.03916" transform="matrix(0.970919 0.239407 -0.250218 0.96819 159.093 33.393)" fill="#8EC7F5"/>
<ellipse cx="176.368" cy="12.209" rx="2.59389" ry="2.53367" fill="#FFBD30"/>
<ellipse cx="184.46" cy="9.19969" rx="2.59389" ry="2.53367" fill="#FFBD30"/>
<path d="M4.02588 42.0825H10.039V45.0346C10.039 45.5869 9.59133 46.0346 9.03905 46.0346H5.02588C4.47359 46.0346 4.02588 45.5869 4.02588 45.0346V42.0825Z" fill="#1D2959"/>
<path d="M41.2089 42.0825H47.222V45.0346C47.222 45.5869 46.7743 46.0346 46.222 46.0346H42.2089C41.6566 46.0346 41.2089 45.5869 41.2089 45.0346V42.0825Z" fill="#1D2959"/>
<path fill-rule="evenodd" clip-rule="evenodd" d="M28.8201 3.49769C27.6471 3.04018 26.3659 2.67305 25.4363 2.69115C24.5612 2.7082 23.3626 3.07871 22.2692 3.5245C21.6571 3.77407 21.0527 4.04927 20.4701 4.3605L20.4662 4.36258C19.7769 4.73699 18.9091 4.49126 18.5282 3.81342C18.1472 3.13547 18.3972 2.28217 19.0866 1.90751C19.2874 1.79987 19.4909 1.69709 19.6957 1.597C20.064 1.41695 20.5809 1.17631 21.1769 0.933333C22.3199 0.46734 23.9372 0.029537 25.3799 0.00143769C26.915 -0.0284639 28.6473 0.412718 29.8717 0.890275C30.6355 1.18822 31.3887 1.51746 32.1125 1.90085L32.1134 1.90133C32.8062 2.26973 33.0642 3.12074 32.6896 3.8021C32.3171 4.47965 31.4392 4.7284 30.7525 4.36652C30.577 4.27488 30.3989 4.18784 30.22 4.10288C29.8703 3.93686 29.3801 3.71612 28.8201 3.49769Z" fill="#8A4A38"/>
<path fill-rule="evenodd" clip-rule="evenodd" d="M19.2686 1.72656C18.6289 1.72656 18.1104 2.24512 18.1104 2.88479V3.59125C18.1104 4.12431 18.5425 4.55644 19.0755 4.55644H19.1016V8.20778H20.1123V4.53033H19.8629C20.5143 4.40353 21.0059 3.82993 21.0059 3.1415C21.0059 2.36005 20.3724 1.72656 19.591 1.72656H19.2686Z" fill="#F6EF3E"/>
<path fill-rule="evenodd" clip-rule="evenodd" d="M31.943 1.72656C32.5826 1.72656 33.1012 2.24512 33.1012 2.88479V3.59125C33.1012 4.12431 32.6691 4.55644 32.136 4.55644H32.1099V8.20778H31.0993V4.53033H31.3486C30.6973 4.40353 30.2056 3.82993 30.2056 3.1415C30.2056 2.36005 30.8391 1.72656 31.6206 1.72656H31.943Z" fill="#F6EF3E"/>
<path d="M0 16.7622C0 11.7916 4.02944 7.76221 9 7.76221H42.2528C47.2234 7.76221 51.2529 11.7916 51.2529 16.7622V42.0823H0V16.7622Z" fill="#8A4A38"/>
<ellipse cx="8.05329" cy="33.2468" rx="5.02106" ry="4.90602" fill="#EF9A9A"/>
<ellipse rx="4.809" ry="9.25666" transform="matrix(0.705105 -0.709103 0.725462 0.688263 39.4773 33.4155)" fill="#93C6EB"/>
<rect width="16.3938" height="9.13788" transform="matrix(0.693231 -0.720716 0.736768 0.676145 19.7542 21.3154)" fill="#C2DEA3"/>
<rect width="8.33475" height="6.2458" rx="1" transform="matrix(0.73793 0.674877 -0.691986 0.721911 10.5845 13.2607)" fill="#C49A6C"/>
<rect x="10.0394" y="23.0498" width="7.06842" height="19.9996" fill="#F57B20"/>
<path d="M10.0394 6.46875H17.1078V23.7639C17.1078 25.7056 15.5153 27.2797 13.5736 27.2797C11.6318 27.2797 10.0394 25.7056 10.0394 23.7639V6.46875Z" fill="#F6A725"/>
<rect x="9.05957" y="21.478" width="9.03459" height="1.96354" fill="#F6EF3E"/>
<rect x="34.1519" y="23.0498" width="7.06842" height="19.9996" fill="#F57B20"/>
<path d="M34.1519 6.46875H41.2203V23.7639C41.2203 25.7056 39.6279 27.2797 37.6861 27.2797C35.7444 27.2797 34.1519 25.7056 34.1519 23.7639V6.46875Z" fill="#F6A725"/>
<rect x="33.1721" y="21.478" width="9.03459" height="1.96354" fill="#F6EF3E"/>
<g filter="url(#filter0_d_22296_2271)">
<path d="M198.541 22.6872C199.514 22.083 200 21.1516 200 19.8929C200 18.2481 199.3 16.9558 197.899 16.016C196.538 15.0594 194.933 14.5811 193.086 14.5811C191.277 14.5811 189.623 15.1013 188.126 16.1419C186.648 17.1656 185.909 18.5334 185.909 20.2453C185.909 20.8831 186.113 21.4117 186.521 21.8313C186.93 22.2341 187.513 22.4355 188.272 22.4355C189.011 22.4355 189.575 22.2341 189.964 21.8313C190.372 21.4117 190.577 20.8831 190.577 20.2453C190.538 19.7586 190.703 19.2635 191.073 18.76C191.442 18.2397 192.113 17.9796 193.086 17.9796C193.902 17.9964 194.486 18.1978 194.836 18.5838C195.206 18.9698 195.371 19.3558 195.332 19.7418C195.332 20.0103 195.235 20.2789 195.04 20.5474C194.846 20.8159 194.642 21.0257 194.428 21.1768C194.233 21.3278 193.912 21.546 193.465 21.8313C193.017 22.1166 192.706 22.318 192.531 22.4355C191.52 23.1571 191.014 24.1138 191.014 25.3054C191.014 25.8928 191.228 26.3879 191.656 26.7907C192.103 27.1767 192.697 27.3697 193.436 27.3697C194.175 27.3697 194.758 27.1767 195.186 26.7907C195.633 26.3879 195.857 25.8928 195.857 25.3054C195.857 25.0536 195.906 24.8187 196.003 24.6005C196.1 24.3823 196.256 24.1809 196.47 23.9963C196.703 23.8117 196.898 23.6606 197.053 23.5432C197.228 23.4257 197.481 23.2746 197.812 23.09C198.162 22.9054 198.405 22.7711 198.541 22.6872Z" fill="#192144"/>
<path d="M173.612 27.9876L178.779 21.7373C179.309 20.9828 180.028 20.5627 180.937 20.4769C181.845 20.3741 182.64 20.5884 183.322 21.12C184.003 21.6516 184.325 22.3632 184.287 23.2549V32.206C184.287 32.7718 184.06 33.252 183.605 33.6464C183.17 34.0236 182.64 34.2122 182.016 34.2122C181.391 34.2122 180.852 34.0236 180.397 33.6464C179.962 33.252 179.744 32.7718 179.744 32.206V26.6501L174.577 32.9004C174.047 33.6549 173.328 34.075 172.42 34.1608C171.511 34.2637 170.716 34.0493 170.035 33.5177C169.353 32.9862 169.032 32.2745 169.069 31.3829V22.4575C169.069 21.8916 169.287 21.4115 169.722 21.0171C170.177 20.6227 170.716 20.4255 171.341 20.4255C171.965 20.4255 172.495 20.6227 172.931 21.0171C173.385 21.4115 173.612 21.8916 173.612 22.4575V27.9876Z" fill="#192144"/>
<path fill-rule="evenodd" clip-rule="evenodd" d="M150.381 32.1182V22.4073C150.381 21.8489 150.142 21.369 149.665 20.9677C149.206 20.5489 148.662 20.3395 148.031 20.3395C147.42 20.3395 146.885 20.5489 146.427 20.9677C145.968 21.369 145.739 21.8489 145.739 22.4073V22.1717C145.51 21.6482 145.051 21.2032 144.363 20.8368C143.676 20.4529 142.892 20.261 142.013 20.261C140.294 20.261 138.708 20.8804 137.256 22.1194C135.843 23.3583 135.136 25.0597 135.136 27.2235C135.136 29.4396 135.833 31.1584 137.228 32.3799C138.622 33.6014 140.218 34.2121 142.013 34.2121C142.892 34.2121 143.666 34.0551 144.335 33.741C145.003 33.4094 145.49 33.0168 145.796 32.5631C145.911 33.0343 146.178 33.4269 146.599 33.741C147.019 34.0376 147.496 34.186 148.031 34.186C148.662 34.186 149.206 33.9853 149.665 33.5839C150.142 33.1826 150.381 32.694 150.381 32.1182ZM143.052 30.3337C144.618 30.3337 145.888 28.9902 145.888 27.333C145.888 25.6757 144.618 24.3322 143.052 24.3322C141.486 24.3322 140.216 25.6757 140.216 27.333C140.216 28.9902 141.486 30.3337 143.052 30.3337Z" fill="#192144"/>
<path d="M129.097 25.3705V22.5637C129.097 21.9935 129.333 21.5096 129.806 21.1122C130.279 20.6974 130.831 20.49 131.462 20.49C132.093 20.49 132.645 20.6974 133.118 21.1122C133.591 21.5096 133.827 21.9935 133.827 22.5637V32.1806C133.827 32.7508 133.591 33.2347 133.118 33.6321C132.664 34.0296 132.112 34.2283 131.462 34.2283C130.812 34.2283 130.25 34.0296 129.777 33.6321C129.323 33.2347 129.097 32.7508 129.097 32.1806V29.3324H123.982V32.1806C123.982 32.7508 123.746 33.2347 123.273 33.6321C122.819 34.0296 122.267 34.2283 121.617 34.2283C120.967 34.2283 120.405 34.0296 119.932 33.6321C119.479 33.2347 119.252 32.7508 119.252 32.1806V22.5637C119.252 21.9935 119.488 21.5096 119.961 21.1122C120.434 20.6974 120.986 20.49 121.617 20.49C122.248 20.49 122.8 20.6974 123.273 21.1122C123.746 21.5096 123.982 21.9935 123.982 22.5637V25.3705H129.097Z" fill="#192144"/>
<path d="M116.879 20.49C117.342 20.49 117.739 20.6619 118.07 21.0055C118.401 21.3492 118.566 22.1412 118.566 22.6223C118.566 23.1034 118.401 23.6009 118.07 23.9445C117.739 24.2882 117.342 24.4091 116.879 24.4091H112.915V32.23C112.915 33.7101 111.584 34.2284 110.249 34.2284C109.01 34.2284 107.828 33.5726 107.828 32.244L107.869 20.49C107.869 20.49 114.775 20.49 116.879 20.49Z" fill="#192144"/>
<path d="M88.5982 14.5811V32.0431C88.5982 32.6189 88.2784 33.1074 87.835 33.5087C87.4101 33.9101 86.7422 34.1108 86.1326 34.1108C85.5229 34.1108 84.6416 33.9101 84.1982 33.5087C83.7733 33.1074 83.5608 32.6188 83.5608 32.0429V18.5225H76.4285V32.0429C76.4285 32.6188 76.2069 33.1074 75.7635 33.5087C75.3386 33.9101 74.4734 34.1108 73.8638 34.1108C73.2541 34.1108 72.455 33.9101 72.0116 33.5087C71.5867 33.1074 71.3743 32.6188 71.3743 32.0429V14.5811C77.0829 14.5811 88.5982 14.5811 88.5982 14.5811Z" fill="#192144"/>
<path d="M104.385 32.0868C102.942 33.4107 101.012 34.0727 98.5939 34.0727C96.1757 34.0727 94.256 33.4107 92.8348 32.0868C91.3712 30.7432 90.6394 29.0636 90.6394 27.0481C90.6394 25.0129 91.3712 23.3333 92.8348 22.0094C94.256 20.6855 96.1757 20.0236 98.5939 20.0236C101.012 20.0236 102.942 20.6855 104.385 22.0094C105.827 23.3531 106.548 25.0326 106.548 27.0481C106.548 29.0636 105.827 30.7432 104.385 32.0868ZM100.63 24.9734C100.227 24.5584 99.7287 24.3114 99.1348 24.2324C98.5621 24.1336 98.0106 24.183 97.4803 24.3806C96.9712 24.5782 96.5363 24.9141 96.1757 25.3883C95.8363 25.8625 95.6878 26.4158 95.7303 27.0481C95.7303 27.878 95.9954 28.5696 96.5257 29.1229C97.0772 29.6564 97.7666 29.9232 98.5939 29.9232C99.4424 29.9232 100.132 29.6663 100.662 29.1525C101.192 28.619 101.458 27.9175 101.458 27.0481C101.458 26.2182 101.182 25.5266 100.63 24.9734Z" fill="#192144"/>
<path d="M157.154 20.4255C159.866 20.4255 167.092 20.4649 167.092 20.4649C167.092 20.4649 167.098 29.0979 167.098 32.1148C167.098 32.6943 166.854 33.1938 166.366 33.6135C165.9 34.0131 165.479 34.2129 164.77 34.2129C164.06 34.2129 163.699 34.2654 163.211 33.8658C162.745 33.4462 162.317 32.6943 162.317 32.1148V24.3219H159.026C159.026 29.9082 159.026 31.1355 156.921 33.1339C156.145 33.8532 155.148 34.2129 153.928 34.2129C153.197 34.2129 152.767 34.0415 152.301 33.6418C151.836 33.2222 151.474 32.5526 151.474 31.9331C151.474 30.5997 151.76 30.0691 152.492 29.1992C154.591 29.1992 154.5 28.7021 154.369 24.9214V22.5236C154.391 21.9441 154.5 20.4255 154.5 20.4255C154.5 20.4255 156.511 20.4255 157.154 20.4255Z" fill="#192144"/>
<path d="M196.194 31.2749C196.194 32.8971 194.788 34.2121 193.053 34.2121C191.318 34.2121 189.912 32.8971 189.912 31.2749C189.912 29.6527 191.318 28.3377 193.053 28.3377C194.788 28.3377 196.194 29.6527 196.194 31.2749Z" fill="#192144"/>
</g>
<defs>
<filter id="filter0_d_22296_2271" x="69.3743" y="13.5811" width="132.626" height="23.6475" filterUnits="userSpaceOnUse" color-interpolation-filters="sRGB">
<feFlood flood-opacity="0" result="BackgroundImageFix"/>
<feColorMatrix in="SourceAlpha" type="matrix" values="0 0 0 0 0 0 0 0 0 0 0 0 0 0 0 0 0 0 127 0" result="hardAlpha"/>
<feOffset dy="1"/>
<feGaussianBlur stdDeviation="1"/>
<feColorMatrix type="matrix" values="0 0 0 0 0 0 0 0 0 0 0 0 0 0 0 0 0 0 0.3 0"/>
<feBlend mode="normal" in2="BackgroundImageFix" result="effect1_dropShadow_22296_2271"/>
<feBlend mode="normal" in="SourceGraphic" in2="effect1_dropShadow_22296_2271" result="shape"/>
</filter>
</defs>
</svg>
