<svg width="32" height="32" viewBox="0 0 32 32" fill="none" xmlns="http://www.w3.org/2000/svg">
<path d="M20.275 15.5873L14.275 11.5873C14.1998 11.5372 14.1124 11.5085 14.0222 11.5041C13.932 11.4997 13.8422 11.5198 13.7625 11.5623C13.6826 11.6039 13.6158 11.6668 13.5694 11.744C13.5231 11.8212 13.4991 11.9098 13.5 11.9998V19.9998C13.4991 20.0899 13.5231 20.1784 13.5694 20.2557C13.6158 20.3329 13.6826 20.3958 13.7625 20.4373C13.8361 20.4754 13.9172 20.4967 14 20.4998C14.0988 20.5016 14.1954 20.4709 14.275 20.4123L20.275 16.4123C20.3447 16.3684 20.4022 16.3075 20.442 16.2354C20.4818 16.1633 20.5027 16.0822 20.5027 15.9998C20.5027 15.9174 20.4818 15.8364 20.442 15.7642C20.4022 15.6921 20.3447 15.6312 20.275 15.5873ZM14.5 19.0623V12.9373L19.1 15.9998L14.5 19.0623ZM28.8125 8.84983C28.7092 8.4687 28.5189 8.11677 28.2564 7.82177C27.9939 7.52676 27.6665 7.29674 27.3 7.14983C23.075 5.52483 16.2875 5.54983 16 5.54983C15.7125 5.54983 8.925 5.52483 4.7 7.14983C4.33348 7.29674 4.00609 7.52676 3.74362 7.82177C3.48115 8.11677 3.29078 8.4687 3.1875 8.84983C2.875 10.0623 2.5 12.2873 2.5 15.9998C2.5 19.7123 2.875 21.9373 3.1875 23.1498C3.29078 23.5309 3.48115 23.8829 3.74362 24.1779C4.00609 24.4729 4.33348 24.7029 4.7 24.8498C8.925 26.4748 15.7125 26.4498 16 26.4498H16.0875C16.95 26.4498 23.2875 26.3998 27.3 24.8498C27.6665 24.7029 27.9939 24.4729 28.2564 24.1779C28.5189 23.8829 28.7092 23.5309 28.8125 23.1498C29.125 21.9373 29.5 19.7123 29.5 15.9998C29.5 12.2873 29.125 10.0623 28.8125 8.84983ZM27.8375 22.8998C27.7774 23.1274 27.6647 23.3376 27.5083 23.5135C27.352 23.6894 27.1564 23.826 26.9375 23.9123C22.8875 25.4748 16.075 25.4498 16 25.4498C15.925 25.4498 9.1125 25.4748 5.0625 23.9123C4.84358 23.826 4.64804 23.6894 4.49169 23.5135C4.33534 23.3376 4.22257 23.1274 4.1625 22.8998C3.8625 21.7373 3.5 19.5998 3.5 15.9998C3.5 12.3998 3.8625 10.2623 4.1625 9.09983C4.22257 8.87229 4.33534 8.66208 4.49169 8.48619C4.64804 8.3103 4.84358 8.17366 5.0625 8.08733C9.1125 6.52483 15.925 6.54983 16 6.54983C16.075 6.54983 22.8875 6.52483 26.9375 8.08733C27.1564 8.17366 27.352 8.3103 27.5083 8.48619C27.6647 8.66208 27.7774 8.87229 27.8375 9.09983C28.1375 10.2623 28.5 12.3998 28.5 15.9998C28.5 19.5998 28.1375 21.7373 27.8375 22.8998Z" fill="black"/>
</svg>
