<svg width="202" height="50" viewBox="0 0 202 50" fill="none" xmlns="http://www.w3.org/2000/svg">
<path d="M93.9956 12.6437L53.899 50L39.2637 2.10917L93.9956 12.6437Z" fill="#FF8D30"/>
<ellipse cx="94.7273" cy="33.897" rx="4.353" ry="4.25192" fill="#88BFEB"/>
<ellipse cx="111.867" cy="21.5314" rx="15.1738" ry="14.8214" fill="#EB9898"/>
<rect width="56.1361" height="28.0818" transform="matrix(0.940449 -0.339934 0.354279 0.93514 102.938 23.3034)" fill="#72A73E"/>
<ellipse cx="110.041" cy="40.6436" rx="2.55056" ry="2.49133" fill="#FFBD30"/>
<ellipse rx="22.7786" ry="9.03912" transform="matrix(0.97092 0.239406 -0.250219 0.968189 159.093 33.3929)" fill="#8EC7F5"/>
<ellipse cx="176.368" cy="12.2097" rx="2.59389" ry="2.53366" fill="#FFBD30"/>
<ellipse cx="184.46" cy="9.19954" rx="2.59389" ry="2.53366" fill="#FFBD30"/>
<path d="M4.02588 42.0822H10.039V45.0343C10.039 45.5866 9.59133 46.0343 9.03905 46.0343H5.02588C4.47359 46.0343 4.02588 45.5866 4.02588 45.0343V42.0822Z" fill="#1D2959"/>
<path d="M41.2089 42.0822H47.222V45.0343C47.222 45.5866 46.7743 46.0343 46.222 46.0343H42.2089C41.6566 46.0343 41.2089 45.5866 41.2089 45.0343V42.0822Z" fill="#1D2959"/>
<path fill-rule="evenodd" clip-rule="evenodd" d="M28.8201 3.49767C27.6471 3.04017 26.3659 2.67304 25.4363 2.69114C24.5612 2.70819 23.3626 3.0787 22.2692 3.52448C21.6571 3.77405 21.0527 4.04925 20.4701 4.36048L20.4662 4.36256C19.7769 4.73697 18.9091 4.49124 18.5282 3.8134C18.1472 3.13545 18.3972 2.28216 19.0866 1.9075C19.2874 1.79986 19.4909 1.69708 19.6957 1.59699C20.064 1.41695 20.5809 1.17631 21.1769 0.933328C22.3199 0.467338 23.9372 0.0295369 25.3799 0.00143768C26.915 -0.0284637 28.6473 0.412716 29.8717 0.890271C30.6355 1.18821 31.3887 1.51746 32.1125 1.90084L32.1134 1.90132C32.8062 2.26972 33.0642 3.12072 32.6896 3.80208C32.3171 4.47963 31.4392 4.72838 30.7525 4.3665C30.577 4.27486 30.3989 4.18782 30.22 4.10286C29.8703 3.93684 29.3801 3.71611 28.8201 3.49767Z" fill="#8A4A38"/>
<path fill-rule="evenodd" clip-rule="evenodd" d="M19.2686 1.72617C18.6289 1.72617 18.1104 2.24473 18.1104 2.8844V3.59085C18.1104 4.12391 18.5425 4.55604 19.0755 4.55604H19.1016V8.20736H20.1123V4.52993H19.8629C20.5143 4.40313 21.0059 3.82953 21.0059 3.14111C21.0059 2.35966 20.3724 1.72617 19.591 1.72617H19.2686Z" fill="#F6EF3E"/>
<path fill-rule="evenodd" clip-rule="evenodd" d="M31.943 1.72617C32.5826 1.72617 33.1012 2.24473 33.1012 2.8844V3.59085C33.1012 4.12391 32.6691 4.55604 32.136 4.55604H32.1099V8.20736H31.0993V4.52993H31.3486C30.6973 4.40313 30.2056 3.82953 30.2056 3.14111C30.2056 2.35966 30.8391 1.72617 31.6206 1.72617H31.943Z" fill="#F6EF3E"/>
<path d="M0 16.7622C0 11.7917 4.02944 7.76221 9 7.76221H42.2528C47.2234 7.76221 51.2529 11.7917 51.2529 16.7622V42.0822H0V16.7622Z" fill="#8A4A38"/>
<ellipse cx="8.05304" cy="33.2472" rx="5.02106" ry="4.906" fill="#EF9A9A"/>
<ellipse rx="4.80899" ry="9.25664" transform="matrix(0.705106 -0.709101 0.725463 0.688261 39.4773 33.4162)" fill="#93C6EB"/>
<rect width="16.3937" height="9.13786" transform="matrix(0.693232 -0.720714 0.73677 0.676144 19.7539 21.3155)" fill="#C2DEA3"/>
<rect width="8.33473" height="6.24579" rx="1" transform="matrix(0.737932 0.674875 -0.691988 0.721909 10.5842 13.2612)" fill="#C49A6C"/>
<rect x="10.0394" y="23.0503" width="7.06842" height="19.9995" fill="#F57B20"/>
<path d="M10.0394 6.46931H17.1078V23.7643C17.1078 25.7061 15.5153 27.2802 13.5736 27.2802C11.6318 27.2802 10.0394 25.7061 10.0394 23.7643V6.46931Z" fill="#F6A725"/>
<rect x="9.05957" y="21.4786" width="9.03459" height="1.96354" fill="#F6EF3E"/>
<rect x="34.1519" y="23.0503" width="7.06842" height="19.9995" fill="#F57B20"/>
<path d="M34.1519 6.46931H41.2203V23.7643C41.2203 25.7061 39.6279 27.2802 37.6861 27.2802C35.7444 27.2802 34.1519 25.7061 34.1519 23.7643V6.46931Z" fill="#F6A725"/>
<rect x="33.1721" y="21.4786" width="9.03459" height="1.96354" fill="#F6EF3E"/>
<g filter="url(#filter0_d_22296_1930)">
<path d="M198.541 22.687C199.514 22.0829 200 21.1514 200 19.8927C200 18.248 199.3 16.9557 197.899 16.0159C196.538 15.0592 194.933 14.5809 193.086 14.5809C191.277 14.5809 189.623 15.1012 188.126 16.1417C186.648 17.1655 185.909 18.5333 185.909 20.2451C185.909 20.8829 186.113 21.4115 186.521 21.8311C186.93 22.2339 187.513 22.4353 188.272 22.4353C189.011 22.4353 189.575 22.2339 189.964 21.8311C190.372 21.4115 190.577 20.8829 190.577 20.2451C190.538 19.7584 190.703 19.2633 191.073 18.7599C191.442 18.2396 192.113 17.9794 193.086 17.9794C193.902 17.9962 194.486 18.1976 194.836 18.5836C195.206 18.9696 195.371 19.3556 195.332 19.7416C195.332 20.0102 195.235 20.2787 195.04 20.5472C194.846 20.8158 194.642 21.0255 194.428 21.1766C194.233 21.3276 193.912 21.5458 193.465 21.8311C193.017 22.1164 192.706 22.3178 192.531 22.4353C191.52 23.157 191.014 24.1136 191.014 25.3052C191.014 25.8926 191.228 26.3877 191.656 26.7905C192.103 27.1765 192.697 27.3695 193.436 27.3695C194.175 27.3695 194.758 27.1765 195.186 26.7905C195.633 26.3877 195.857 25.8926 195.857 25.3052C195.857 25.0534 195.906 24.8185 196.003 24.6003C196.1 24.3821 196.256 24.1807 196.47 23.9961C196.703 23.8115 196.898 23.6604 197.053 23.543C197.228 23.4255 197.481 23.2744 197.812 23.0898C198.162 22.9052 198.405 22.771 198.541 22.687Z" fill="white"/>
<path d="M173.612 27.9874L178.779 21.7371C179.309 20.9826 180.028 20.5625 180.937 20.4768C181.845 20.3739 182.64 20.5882 183.322 21.1198C184.003 21.6514 184.325 22.363 184.287 23.2547V32.2057C184.287 32.7716 184.06 33.2517 183.605 33.6461C183.17 34.0234 182.64 34.212 182.016 34.212C181.391 34.212 180.852 34.0234 180.397 33.6461C179.962 33.2517 179.744 32.7716 179.744 32.2057V26.6499L174.577 32.9002C174.047 33.6547 173.328 34.0748 172.42 34.1606C171.511 34.2634 170.716 34.0491 170.035 33.5175C169.353 32.9859 169.032 32.2743 169.069 31.3826V22.4573C169.069 21.8915 169.287 21.4113 169.722 21.0169C170.177 20.6225 170.716 20.4253 171.341 20.4253C171.965 20.4253 172.495 20.6225 172.931 21.0169C173.385 21.4113 173.612 21.8915 173.612 22.4573V27.9874Z" fill="white"/>
<path fill-rule="evenodd" clip-rule="evenodd" d="M150.381 32.1179V22.4071C150.381 21.8487 150.142 21.3688 149.665 20.9675C149.206 20.5487 148.662 20.3393 148.031 20.3393C147.42 20.3393 146.885 20.5487 146.427 20.9675C145.968 21.3688 145.739 21.8487 145.739 22.4071V22.1715C145.51 21.648 145.051 21.2031 144.363 20.8366C143.676 20.4527 142.892 20.2608 142.013 20.2608C140.294 20.2608 138.708 20.8803 137.256 22.1192C135.843 23.3581 135.136 25.0595 135.136 27.2233C135.136 29.4394 135.833 31.1582 137.228 32.3797C138.622 33.6012 140.218 34.2119 142.013 34.2119C142.892 34.2119 143.666 34.0549 144.335 33.7408C145.003 33.4092 145.49 33.0166 145.796 32.5629C145.911 33.034 146.178 33.4267 146.599 33.7408C147.019 34.0374 147.496 34.1857 148.031 34.1857C148.662 34.1857 149.206 33.9851 149.665 33.5837C150.142 33.1824 150.381 32.6938 150.381 32.1179ZM143.052 30.3335C144.618 30.3335 145.888 28.99 145.888 27.3328C145.888 25.6755 144.618 24.3321 143.052 24.3321C141.486 24.3321 140.216 25.6755 140.216 27.3328C140.216 28.99 141.486 30.3335 143.052 30.3335Z" fill="white"/>
<path d="M129.097 25.3703V22.5636C129.097 21.9933 129.333 21.5094 129.806 21.112C130.279 20.6972 130.831 20.4899 131.462 20.4899C132.093 20.4899 132.645 20.6972 133.118 21.112C133.591 21.5094 133.827 21.9933 133.827 22.5636V32.1803C133.827 32.7506 133.591 33.2345 133.118 33.6319C132.664 34.0294 132.112 34.2281 131.462 34.2281C130.812 34.2281 130.25 34.0294 129.777 33.6319C129.323 33.2345 129.097 32.7506 129.097 32.1803V29.3321H123.982V32.1803C123.982 32.7506 123.746 33.2345 123.273 33.6319C122.819 34.0294 122.267 34.2281 121.617 34.2281C120.967 34.2281 120.405 34.0294 119.932 33.6319C119.479 33.2345 119.252 32.7506 119.252 32.1803V22.5636C119.252 21.9933 119.488 21.5094 119.961 21.112C120.434 20.6972 120.986 20.4899 121.617 20.4899C122.248 20.4899 122.8 20.6972 123.273 21.112C123.746 21.5094 123.982 21.9933 123.982 22.5636V25.3703H129.097Z" fill="white"/>
<path d="M116.879 20.4899C117.342 20.4899 117.739 20.6617 118.07 21.0053C118.401 21.349 118.566 22.1411 118.566 22.6222C118.566 23.1033 118.401 23.6007 118.07 23.9444C117.739 24.288 117.342 24.4089 116.879 24.4089H112.915V32.2298C112.915 33.7099 111.584 34.2282 110.249 34.2282C109.01 34.2282 107.828 33.5724 107.828 32.2437L107.869 20.4899C107.869 20.4899 114.775 20.4899 116.879 20.4899Z" fill="white"/>
<path d="M88.5982 14.5809V32.0428C88.5982 32.6187 88.2784 33.1072 87.835 33.5085C87.4101 33.9099 86.7422 34.1105 86.1326 34.1105C85.5229 34.1105 84.6416 33.9099 84.1982 33.5085C83.7733 33.1072 83.5608 32.6186 83.5608 32.0427V18.5223H76.4285V32.0427C76.4285 32.6186 76.2069 33.1072 75.7635 33.5085C75.3386 33.9099 74.4734 34.1105 73.8638 34.1105C73.2541 34.1105 72.455 33.9099 72.0116 33.5085C71.5867 33.1072 71.3743 32.6186 71.3743 32.0427V14.5809C77.0829 14.5809 88.5982 14.5809 88.5982 14.5809Z" fill="white"/>
<path d="M104.385 32.0866C102.942 33.4105 101.012 34.0725 98.5939 34.0725C96.1757 34.0725 94.256 33.4105 92.8348 32.0866C91.3712 30.743 90.6394 29.0634 90.6394 27.0479C90.6394 25.0127 91.3712 23.3331 92.8348 22.0092C94.256 20.6853 96.1757 20.0234 98.5939 20.0234C101.012 20.0234 102.942 20.6853 104.385 22.0092C105.827 23.3529 106.548 25.0324 106.548 27.0479C106.548 29.0634 105.827 30.743 104.385 32.0866ZM100.63 24.9732C100.227 24.5582 99.7287 24.3112 99.1348 24.2322C98.5621 24.1334 98.0106 24.1828 97.4803 24.3804C96.9712 24.578 96.5363 24.9139 96.1757 25.3881C95.8363 25.8623 95.6878 26.4156 95.7303 27.0479C95.7303 27.8778 95.9954 28.5694 96.5257 29.1227C97.0772 29.6562 97.7666 29.9229 98.5939 29.9229C99.4424 29.9229 100.132 29.6661 100.662 29.1523C101.192 28.6188 101.458 27.9173 101.458 27.0479C101.458 26.218 101.182 25.5264 100.63 24.9732Z" fill="white"/>
<path d="M157.154 20.4253C159.866 20.4253 167.092 20.4647 167.092 20.4647C167.092 20.4647 167.098 29.0977 167.098 32.1146C167.098 32.6941 166.854 33.1936 166.366 33.6132C165.9 34.0129 165.479 34.2127 164.77 34.2127C164.06 34.2127 163.699 34.2652 163.211 33.8656C162.745 33.446 162.317 32.6941 162.317 32.1146V24.3218H159.026C159.026 29.908 159.026 31.1353 156.921 33.1337C156.145 33.853 155.148 34.2127 153.928 34.2127C153.197 34.2127 152.767 34.0412 152.301 33.6416C151.836 33.222 151.474 32.5523 151.474 31.9329C151.474 30.5995 151.76 30.0689 152.492 29.199C154.591 29.199 154.5 28.7019 154.369 24.9212V22.5234C154.391 21.9439 154.5 20.4253 154.5 20.4253C154.5 20.4253 156.511 20.4253 157.154 20.4253Z" fill="white"/>
<path d="M196.194 31.2747C196.194 32.8968 194.788 34.2118 193.053 34.2118C191.318 34.2118 189.912 32.8968 189.912 31.2747C189.912 29.6525 191.318 28.3375 193.053 28.3375C194.788 28.3375 196.194 29.6525 196.194 31.2747Z" fill="white"/>
</g>
<defs>
<filter id="filter0_d_22296_1930" x="69.3743" y="13.5809" width="132.626" height="23.6473" filterUnits="userSpaceOnUse" color-interpolation-filters="sRGB">
<feFlood flood-opacity="0" result="BackgroundImageFix"/>
<feColorMatrix in="SourceAlpha" type="matrix" values="0 0 0 0 0 0 0 0 0 0 0 0 0 0 0 0 0 0 127 0" result="hardAlpha"/>
<feOffset dy="1"/>
<feGaussianBlur stdDeviation="1"/>
<feColorMatrix type="matrix" values="0 0 0 0 0 0 0 0 0 0 0 0 0 0 0 0 0 0 0.3 0"/>
<feBlend mode="normal" in2="BackgroundImageFix" result="effect1_dropShadow_22296_1930"/>
<feBlend mode="normal" in="SourceGraphic" in2="effect1_dropShadow_22296_1930" result="shape"/>
</filter>
</defs>
</svg>
