<svg style="display: none" xmlns="http://www.w3.org/2000/svg">
  <symbol viewBox="0 0 21 19" id="telegram-icon">
    <g fill="#000000">
      <path
        d="M20.12.56A1.5 1.5 0 0 0 18.6.33l-17.34 7a1.5 1.5 0 0 0 .08 2.79l3.74 1.3 2.03 6.7.02.03a.47.47 0 0 0 .3.29l.04.01c.08.02.16.01.23 0l.02-.01a.48.48 0 0 0 .19-.12l.02-.02 2.92-3.21 4.25 3.3a1.5 1.5 0 0 0 2.37-.88L20.63 2a1.48 1.48 0 0 0-.5-1.44ZM8.17 12.7 7.48 16 6.05 11.3l7.08-3.68-4.83 4.83a.48.48 0 0 0-.13.25Zm8.36 4.62a.52.52 0 0 1-.34.38.5.5 0 0 1-.5-.07l-4.6-3.57a.48.48 0 0 0-.66.06L8.4 16.34l.68-3.31 6.96-6.96a.48.48 0 0 0-.56-.77L5.45 10.52 1.65 9.2a.5.5 0 0 1-.34-.47.51.51 0 0 1 .32-.5l17.34-7a.52.52 0 0 1 .54.08.5.5 0 0 1 .17.5l-3.15 15.5Z"
        fill="#000"/>
    </g>
  </symbol>

  <symbol viewBox="0 0 31 17" id="vk-icon">
    <g fill="#000000">
      <path
        d="M24.83 16.66a4.05 4.05 0 0 1-2.08-.63c-.65-.44-1.24-.95-1.78-1.53-.44-.44-1.17-1.18-1.45-1.18s-.48.92-.47 1.57c0 .45-.16.89-.47 1.21-.34.29-.77.46-1.22.5h-1.92a11.32 11.32 0 0 1-7.43-3C4.33 10.23 1.17 3.8 1.04 3.51a1.34 1.34 0 0 1 .15-1.48c.38-.31.87-.48 1.36-.48h4.2c.34.05.66.17.95.35.27.19.5.44.63.73.43.93.93 1.82 1.48 2.67 1.31 2 1.9 2.46 2.1 2.56.24-.93.3-1.9.2-2.87a2.7 2.7 0 0 0-.22-1.28 1.33 1.33 0 0 0-.77-.29l-.73-.69c-.14-.66.6-1.23 1.1-1.45A8.69 8.69 0 0 1 14.64.9h.71c.73-.01 1.45.05 2.15.2 1.7.36 1.64 1.73 1.57 3.31 0 .46-.05 1-.05 1.62v.48c-.04.44 0 .88.1 1.3a9.09 9.09 0 0 0 2.06-2.48c.58-.89 1.09-1.82 1.52-2.8a1.58 1.58 0 0 1 1.6-.95h4.28a2 2 0 0 1 .38 0c1 0 1.6.3 1.83.85.24.56.17 1.66-2.36 4.61l-1 1.13c-.48.48-.9 1.01-1.24 1.6.38.43.81.8 1.28 1.13 1.15.87 2.16 1.9 3 3.07a1.6 1.6 0 0 1 .26 1.68 2.3 2.3 0 0 1-1.88 1l-3.79.05-.23-.04Zm-5.3-4.84c.9 0 1.67.8 2.5 1.62.45.5.95.93 1.5 1.3.42.28.9.43 1.4.42h.1l3.8-.05c.2 0 .37-.05.54-.14l-.1-.16a13.22 13.22 0 0 0-2.68-2.72c-1.19-1-1.8-1.47-1.87-2.24-.07-.77.5-1.44 1.61-2.7l1-1.12c.85-.86 1.54-1.85 2.05-2.95a5.66 5.66 0 0 0-.67 0h-4.37a.55.55 0 0 0-.24 0 20.49 20.49 0 0 1-1.65 3.05c-1.89 2.82-2.78 3.2-3.4 3.2-.2 0-.4-.04-.57-.14-1-.57-1-1.84-.94-2.76V6c0-.65 0-1.2.05-1.69.08-1.68 0-1.69-.38-1.78a8.56 8.56 0 0 0-1.86-.16h-.69a13 13 0 0 0-1.9.1c.1.07.18.16.25.25.42.65.62 1.42.6 2.18.12 1.65.05 3.8-1 4.32-.2.1-.4.14-.6.13-.94 0-1.86-.88-3.43-3.26-.6-.9-1.14-1.86-1.6-2.85l-.09-.1c-.1-.05-.2-.08-.32-.1H2.5c.6 1.21 3.4 6.61 6.52 9.44a10 10 0 0 0 6.42 2.63h1.85a1 1 0 0 0 .27-.1v-.09c0-.27 0-2.6 1.58-3 .13-.04.25-.08.38-.1Z"
        fill="#192144"/>
    </g>
  </symbol>

  <symbol viewBox="0 0 21 17" id="youtube-icon">
    <g fill="#000000">
    <path
      d="M13.6 8.2 9.25 5.3a.36.36 0 0 0-.56.3v5.8a.35.35 0 0 0 .19.32.4.4 0 0 0 .17.05c.07 0 .14-.02.2-.07l4.35-2.9a.35.35 0 0 0 0-.6Zm-4.19 2.52V6.28l3.34 2.22-3.34 2.22ZM19.8 3.31a1.85 1.85 0 0 0-1.1-1.23C15.64.9 10.7.92 10.5.92c-.2 0-5.14-.02-8.2 1.16A1.85 1.85 0 0 0 1.2 3.3C.97 4.19.7 5.81.7 8.5c0 2.7.27 4.31.5 5.19a1.85 1.85 0 0 0 1.1 1.23c3.06 1.18 8 1.16 8.2 1.16h.06c.63 0 5.23-.03 8.14-1.16a1.85 1.85 0 0 0 1.1-1.23c.23-.88.5-2.5.5-5.19 0-2.7-.27-4.31-.5-5.19Zm-.7 10.2a1.09 1.09 0 0 1-.66.73c-2.94 1.14-7.89 1.12-7.94 1.12-.05 0-5 .02-7.94-1.12a1.09 1.09 0 0 1-.65-.73c-.22-.85-.48-2.4-.48-5.01s.26-4.16.48-5a1.09 1.09 0 0 1 .65-.74c2.94-1.14 7.89-1.12 7.94-1.12.05 0 5-.02 7.94 1.12a1.09 1.09 0 0 1 .65.73c.22.85.48 2.4.48 5.01s-.26 4.16-.48 5Z"
      fill="#000"/>
  </symbol>
</svg>
