<svg style="display: none" xmlns="http://www.w3.org/2000/svg">
  <symbol viewBox="0 0 19 21" id="plane-icon">
    <g fill="#1d2e5b">
      <path
        d="M17.535.18c-.805.18-1.613.362-1.914.859l-2.327 4.373L.8 8.215.293 9.612l9.561.853-1.622 3.786-3.626.813-.91 1.488 2.616.268.298 1.217c.134.432.603.72 1.003.63l1.209-.271 1.4 2.253.911-1.488-.895-3.65 2.626-3.157 5.01 8.293 1.01-1.081L15.8 6.989l2.831-4.057c.305-.498.106-1.308-.093-2.122-.099-.403-.603-.72-1.003-.63Z"
        stroke="none"/>
    </g>
  </symbol>
  <symbol viewBox="0 0 17 16" id="bus-icon">
    <g fill="#1d2e5b" clip-path="url(#a)">
      <path
        d="M4.46 10.86c0-.32-.14-.59-.41-.81a1.5 1.5 0 0 0-.99-.34c-.38 0-.71.12-.98.34-.28.22-.41.5-.41.8 0 .32.13.6.4.82.28.22.6.33 1 .33.38 0 .7-.11.98-.33.27-.23.4-.5.4-.81Zm11.14 0c0-.32-.13-.59-.4-.81a1.5 1.5 0 0 0-1-.34c-.38 0-.7.12-.98.34-.27.22-.4.5-.4.8 0 .32.13.6.4.82.28.22.6.33.99.33.38 0 .71-.11.98-.33.28-.23.41-.5.41-.81Zm-.5-3.54-.78-3.43a.58.58 0 0 0-.25-.33.77.77 0 0 0-.44-.13h-10a.77.77 0 0 0-.43.13c-.13.08-.21.2-.25.33l-.78 3.43a.5.5 0 0 0 .15.47c.14.14.32.21.54.21h11.56c.21 0 .4-.07.53-.2a.5.5 0 0 0 .15-.48Zm-2.46-5.46a.38.38 0 0 0-.15-.3.56.56 0 0 0-.37-.13H5.15a.56.56 0 0 0-.37.12.38.38 0 0 0-.15.3c0 .13.05.23.15.31.1.08.23.13.37.13h6.97c.14 0 .27-.05.37-.13.1-.08.15-.18.15-.3ZM17 8.33v5.38h-1.4v1.15c0 .31-.13.58-.4.8-.28.23-.6.34-1 .34a1.5 1.5 0 0 1-.98-.33c-.27-.23-.4-.5-.4-.81V13.7H4.46v1.15c0 .31-.14.58-.41.8-.27.23-.6.34-.99.34a1.5 1.5 0 0 1-.98-.33c-.28-.23-.41-.5-.41-.81V13.7H.27V8.33c0-.67.1-1.33.28-2L1.67 2.3c.06-.47.42-.88 1.06-1.23a8.18 8.18 0 0 1 2.5-.8C6.26.1 7.4 0 8.63 0c1.25 0 2.38.09 3.4.27 1.03.18 1.87.44 2.51.8.64.34 1 .75 1.06 1.22l1.15 4.05c.16.6.25 1.27.25 1.99Z"/>
    </g>
    <defs>
      <clipPath id="a">
        <path transform="translate(.27)" d="M0 0h16.73v16H0z"/>
      </clipPath>
    </defs>
  </symbol>
  <symbol viewBox="0 0 15 12" id="bicycle-icon">
    <g fill="#1d2e5b" clip-path="url(#a)">
      <path
        d="M11.9489 12C11.3544 12 10.7733 11.8314 10.279 11.5155C9.78471 11.1996 9.39946 10.7506 9.17197 10.2252C8.94448 9.69988 8.88496 9.12181 9.00093 8.56412C9.11691 8.00642 9.40317 7.49414 9.82352 7.09207C10.2439 6.68999 10.7794 6.41618 11.3625 6.30524C11.9455 6.19431 12.5499 6.25125 13.0991 6.46885C13.6483 6.68645 14.1177 7.05495 14.448 7.52774C14.7783 8.00053 14.9545 8.55638 14.9545 9.125C14.9537 9.88724 14.6367 10.618 14.0732 11.157C13.5098 11.696 12.7457 11.9992 11.9489 12V12ZM11.9489 7.25C11.5612 7.25 11.1822 7.35997 10.8598 7.566C10.5375 7.77202 10.2862 8.06486 10.1378 8.40747C9.98948 8.75008 9.95066 9.12708 10.0263 9.49079C10.1019 9.85451 10.2886 10.1886 10.5628 10.4508C10.8369 10.713 11.1862 10.8916 11.5664 10.964C11.9467 11.0363 12.3408 10.9992 12.699 10.8573C13.0572 10.7154 13.3633 10.475 13.5787 10.1667C13.7941 9.85835 13.9091 9.49584 13.9091 9.125C13.9085 8.6279 13.7018 8.15132 13.3343 7.79982C12.9668 7.44831 12.4686 7.25058 11.9489 7.25V7.25Z"/>
      <path
        d="M3.32387 12C2.7294 12 2.14828 11.8314 1.654 11.5155C1.15972 11.1996 0.774472 10.7506 0.546979 10.2252C0.319486 9.69988 0.259964 9.12181 0.375939 8.56412C0.491913 8.00642 0.778177 7.49414 1.19853 7.09207C1.61888 6.68999 2.15444 6.41618 2.73749 6.30524C3.32053 6.19431 3.92487 6.25125 4.47409 6.46885C5.02331 6.68645 5.49273 7.05495 5.823 7.52774C6.15327 8.00053 6.32955 8.55638 6.32955 9.125C6.32868 9.88724 6.01174 10.618 5.44825 11.157C4.88476 11.696 4.12076 11.9992 3.32387 12V12ZM3.32387 7.25C2.93617 7.25 2.55718 7.35997 2.23482 7.566C1.91247 7.77202 1.66122 8.06486 1.51285 8.40747C1.36449 8.75008 1.32567 9.12708 1.4013 9.49079C1.47694 9.85451 1.66363 10.1886 1.93778 10.4508C2.21192 10.713 2.5612 10.8916 2.94145 10.964C3.32169 11.0363 3.71583 10.9992 4.07401 10.8573C4.4322 10.7154 4.73834 10.475 4.95374 10.1667C5.16913 9.85835 5.28409 9.49584 5.28409 9.125C5.28349 8.6279 5.07677 8.15132 4.70929 7.79982C4.34181 7.44831 3.84357 7.25058 3.32387 7.25V7.25Z"/>
      <path
        d="M9.72727 2.00003C9.86497 2.00049 10.0014 1.97483 10.1287 1.92454C10.2559 1.87425 10.3715 1.80033 10.4687 1.70705C10.566 1.61377 10.6429 1.50298 10.6951 1.38109C10.7472 1.25919 10.7736 1.12862 10.7727 0.996906C10.7742 0.865854 10.7484 0.735825 10.6968 0.614425C10.6452 0.493025 10.5688 0.382689 10.472 0.28987C10.3753 0.19705 10.2602 0.12361 10.1334 0.0738444C10.0067 0.0240783 9.87081 -0.00101519 9.7338 3.14413e-05C9.59651 -0.000378941 9.46048 0.0250803 9.33347 0.0749559C9.20647 0.124831 9.09098 0.198147 8.9936 0.290715C8.89621 0.383283 8.81884 0.493292 8.76591 0.614461C8.71297 0.735629 8.68551 0.865584 8.68508 0.996906C8.68465 1.12823 8.71127 1.25834 8.76341 1.37983C8.81555 1.50131 8.8922 1.61178 8.98898 1.70493C9.08575 1.79808 9.20076 1.87208 9.32744 1.92271C9.45411 1.97335 9.58998 1.99962 9.72727 2.00003V2.00003Z"/>
      <path
        d="M11.2808 4.00006H9.85109C9.82764 4.00007 9.80462 3.99404 9.78444 3.9826C9.76427 3.97116 9.74768 3.95474 9.73642 3.93506L8.69946 2.11725C8.6264 1.98216 8.52111 1.86542 8.39211 1.77649C8.26311 1.68756 8.11404 1.62893 7.95695 1.60534C7.79986 1.58176 7.63918 1.59389 7.4879 1.64075C7.33663 1.68761 7.19901 1.76788 7.08619 1.87506L4.80384 4.07506C4.61209 4.26226 4.50325 4.51301 4.5 4.77506C4.5 5.31881 4.91165 5.51256 5.1044 5.62194C6.03551 6.13506 6.69121 6.51037 7.05091 6.71881C7.07003 6.72995 7.08584 6.74559 7.09683 6.76425C7.10781 6.78291 7.1136 6.80396 7.11364 6.82537V8.98537C7.11364 9.25444 7.32991 9.48537 7.61121 9.49881C7.68183 9.50207 7.75241 9.49158 7.81867 9.468C7.88494 9.44441 7.94551 9.40821 7.99673 9.36158C8.04795 9.31496 8.08874 9.25888 8.11665 9.19674C8.14456 9.1346 8.159 9.06769 8.15909 9.00006V6.31256C8.15914 6.23319 8.13943 6.15494 8.10159 6.0843C8.06376 6.01366 8.00888 5.95265 7.94151 5.90631L6.7327 5.07475C6.71753 5.06436 6.70485 5.05099 6.69553 5.03553C6.68621 5.02007 6.68046 5.00288 6.67867 4.98512C6.67687 4.96736 6.67907 4.94943 6.68513 4.93255C6.69118 4.91567 6.70094 4.90022 6.71375 4.88725L8.08591 3.48756C8.09998 3.47316 8.11741 3.46215 8.13677 3.45542C8.15614 3.44869 8.1769 3.44644 8.19735 3.44884C8.2178 3.45125 8.23737 3.45825 8.25445 3.46927C8.27154 3.48029 8.28565 3.49502 8.29565 3.51225L9.00852 4.74287C9.05383 4.82089 9.12014 4.88588 9.20057 4.9311C9.281 4.97633 9.37261 5.00014 9.46591 5.00006H11.2955C11.3663 5.00014 11.4364 4.98646 11.5015 4.95984C11.5666 4.93322 11.6254 4.89422 11.6743 4.84521C11.7231 4.7962 11.7611 4.73821 11.7859 4.67474C11.8106 4.61127 11.8216 4.54366 11.8182 4.476C11.8045 4.20694 11.562 4.00006 11.2808 4.00006Z"/>
    </g>
  </symbol>
  <symbol viewBox="0 0 19 19" id="on-foot-icon">
    <g fill="#1d2e5b">
      <path
        d="M14.292 4.5c1.058 0 1.916-.82 1.916-1.833S15.35.833 14.292.833c-1.059 0-1.917.821-1.917 1.834 0 1.012.858 1.833 1.917 1.833ZM13.12 9.055c.22.313.535.555.903.69.369.137.772.161 1.155.07l3.178-.76-.463-1.778-3.178.76-1.321-1.894a1.932 1.932 0 0 0-1.22-.783L8.49 4.654a1.993 1.993 0 0 0-1.218.15 1.876 1.876 0 0 0-.872.828l-1.59 3.04 1.715.82 1.59-3.04 1.884.36-4.874 7.771H.875v1.834h4.25c.668 0 1.298-.341 1.643-.89l1.838-2.93 4.954.948 1.74 4.995 1.817-.58-1.74-4.995a1.837 1.837 0 0 0-.55-.794 1.959 1.959 0 0 0-.893-.425l-2.912-.556 1.698-2.708.4.573Z"/>
    </g>
  </symbol>
</svg>
