<svg width="25" height="24" viewBox="0 0 25 24" fill="none" xmlns="http://www.w3.org/2000/svg">
<path d="M22.1242 2.68688C21.9155 2.51392 21.6639 2.40065 21.3961 2.35908C21.1283 2.31751 20.8542 2.34919 20.6029 2.45075L3.26387 9.45043C2.98368 9.56557 2.74514 9.76321 2.57991 10.0171C2.41468 10.271 2.33057 10.5691 2.33876 10.872C2.34695 11.1748 2.44705 11.4679 2.62576 11.7125C2.80448 11.9571 3.05335 12.1416 3.33936 12.2414L7.08065 13.5401L9.10807 20.2427C9.11194 20.2562 9.12452 20.2649 9.13033 20.2775C9.15121 20.331 9.18172 20.3802 9.22033 20.4227C9.27899 20.4882 9.35471 20.5361 9.43903 20.5611C9.44871 20.5649 9.45549 20.5737 9.46516 20.5756H9.47097L9.47387 20.5766C9.54874 20.5927 9.62654 20.5887 9.69936 20.5649C9.7071 20.563 9.71484 20.563 9.72355 20.5601C9.79347 20.5356 9.85674 20.4952 9.90839 20.442C9.9142 20.4353 9.92387 20.4343 9.92968 20.4285L12.8455 17.2098L17.1006 20.5049C17.359 20.7072 17.6774 20.8166 18.0055 20.8166C18.7158 20.8166 19.3284 20.3191 19.4745 19.6253L22.6313 4.12398C22.6848 3.86083 22.666 3.58807 22.5766 3.33481C22.4873 3.08155 22.331 2.85728 22.1242 2.68592V2.68688ZM10.1658 14.8127L9.48162 18.1388L8.0542 13.4182L15.1332 9.73108L10.2974 14.5679C10.2305 14.6348 10.1847 14.7199 10.1658 14.8127ZM18.5261 19.4308C18.508 19.5185 18.4675 19.6001 18.4087 19.6677C18.3499 19.7354 18.2747 19.7867 18.1903 19.8169C18.108 19.8486 18.0188 19.8583 17.9316 19.845C17.8444 19.8318 17.7621 19.7961 17.6929 19.7414L13.0836 16.1714C12.9872 16.097 12.8663 16.0617 12.7451 16.0724C12.6238 16.0832 12.5111 16.1393 12.4294 16.2295L10.4 18.4659L11.0832 15.1495L18.0403 8.1914C18.1218 8.10966 18.1714 8.00149 18.1801 7.88641C18.1888 7.77132 18.1561 7.65691 18.0879 7.56382C18.0197 7.47073 17.9205 7.40508 17.8081 7.37873C17.6957 7.35237 17.5777 7.36705 17.4752 7.42011L7.44645 12.644L3.65581 11.3259C3.5553 11.2927 3.46764 11.229 3.40503 11.1437C3.34241 11.0584 3.30796 10.9556 3.30645 10.8498C3.30163 10.743 3.33016 10.6374 3.38808 10.5476C3.446 10.4577 3.53044 10.3882 3.62968 10.3485L20.9658 3.34882C21.0546 3.31107 21.1523 3.29887 21.2477 3.31357C21.3431 3.32827 21.4325 3.3693 21.5058 3.43204C21.5787 3.49107 21.6338 3.5692 21.6649 3.65772C21.696 3.74624 21.7019 3.84166 21.6819 3.93334L18.5261 19.4317V19.4308Z" fill="black"/>
</svg>
