<svg width="25" height="24" viewBox="0 0 25 24" fill="none" xmlns="http://www.w3.org/2000/svg">
<path d="M15.6028 11.3248L11.248 8.42162C11.1934 8.38527 11.13 8.36439 11.0645 8.3612C10.999 8.358 10.9339 8.37261 10.876 8.40348C10.818 8.43364 10.7695 8.47928 10.7359 8.53533C10.7023 8.59138 10.6848 8.65566 10.6855 8.72102V14.5275C10.6848 14.5928 10.7023 14.6571 10.7359 14.7132C10.7695 14.7692 10.818 14.8148 10.876 14.845C10.9294 14.8726 10.9883 14.8881 11.0484 14.8904C11.1201 14.8917 11.1902 14.8694 11.248 14.8269L15.6028 11.9236C15.6534 11.8918 15.6951 11.8476 15.724 11.7952C15.7529 11.7429 15.7681 11.684 15.7681 11.6242C15.7681 11.5644 15.7529 11.5056 15.724 11.4533C15.6951 11.4009 15.6534 11.3567 15.6028 11.3248ZM11.4113 13.847V9.40146L14.75 11.6242L11.4113 13.847ZM21.7994 6.43473C21.7244 6.15811 21.5863 5.90267 21.3958 5.68856C21.2053 5.47444 20.9676 5.30749 20.7016 5.20086C17.6351 4.02142 12.7087 4.03957 12.5 4.03957C12.2913 4.03957 7.36492 4.02142 4.29839 5.20086C4.03237 5.30749 3.79474 5.47444 3.60424 5.68856C3.41374 5.90267 3.27556 6.15811 3.20061 6.43473C2.97379 7.31477 2.70161 8.92969 2.70161 11.6242C2.70161 14.3188 2.97379 15.9337 3.20061 16.8138C3.27556 17.0904 3.41374 17.3458 3.60424 17.5599C3.79474 17.774 4.03237 17.941 4.29839 18.0476C7.36492 19.2271 12.2913 19.2089 12.5 19.2089H12.5635C13.1895 19.2089 17.7893 19.1726 20.7016 18.0476C20.9676 17.941 21.2053 17.774 21.3958 17.5599C21.5863 17.3458 21.7244 17.0904 21.7994 16.8138C22.0262 15.9337 22.2984 14.3188 22.2984 11.6242C22.2984 8.92969 22.0262 7.31477 21.7994 6.43473ZM21.0917 16.6323C21.0481 16.7975 20.9663 16.95 20.8528 17.0777C20.7393 17.2054 20.5974 17.3045 20.4385 17.3672C17.499 18.5013 12.5544 18.4831 12.5 18.4831C12.4456 18.4831 7.50101 18.5013 4.56149 17.3672C4.4026 17.3045 4.26067 17.2054 4.1472 17.0777C4.03372 16.95 3.95187 16.7975 3.90827 16.6323C3.69053 15.7886 3.42742 14.2371 3.42742 11.6242C3.42742 9.01134 3.69053 7.45993 3.90827 6.61618C3.95187 6.45103 4.03372 6.29846 4.1472 6.1708C4.26067 6.04314 4.4026 5.94396 4.56149 5.8813C7.50101 4.74723 12.4456 4.76537 12.5 4.76537C12.5544 4.76537 17.499 4.74723 20.4385 5.8813C20.5974 5.94396 20.7393 6.04314 20.8528 6.1708C20.9663 6.29846 21.0481 6.45103 21.0917 6.61618C21.3095 7.45993 21.5726 9.01134 21.5726 11.6242C21.5726 14.2371 21.3095 15.7886 21.0917 16.6323Z" fill="black"/>
</svg>
