<svg width="31" height="24" viewBox="0 0 31 24" fill="none" xmlns="http://www.w3.org/2000/svg">
<path d="M24.8332 19.7888C24.0954 19.7722 23.3762 19.5543 22.7532 19.1588C22.1028 18.7192 21.5055 18.2058 20.9732 17.6288C20.5332 17.1888 19.8032 16.4488 19.5232 16.4488C19.2432 16.4488 19.0432 17.3688 19.0532 18.0188C19.0574 18.4674 18.8892 18.9006 18.5832 19.2288C18.2352 19.513 17.8105 19.6871 17.3632 19.7288H15.4432C12.6836 19.6681 10.0412 18.6012 8.01316 16.7288C4.33316 13.3588 1.17316 6.91876 1.04316 6.63876C0.919163 6.40485 0.867235 6.13944 0.893931 5.87604C0.920627 5.61263 1.02475 5.36304 1.19316 5.15876C1.5743 4.84091 2.05695 4.67056 2.55316 4.67876H6.63316H6.75316C7.09074 4.72801 7.41432 4.84723 7.70316 5.02876C7.97498 5.21103 8.19262 5.46321 8.33316 5.75876C8.76434 6.68183 9.25885 7.57396 9.81316 8.42876C11.1232 10.4288 11.7032 10.8888 11.9132 10.9888C12.1468 10.051 12.2111 9.07911 12.1032 8.11876C12.1382 7.68137 12.0661 7.24203 11.8932 6.83876C11.6736 6.66314 11.404 6.56161 11.1232 6.54876L10.3932 5.85876C10.2532 5.19876 10.9832 4.62876 11.4932 4.40876C12.5109 4.08986 13.5787 3.96105 14.6432 4.02876H15.3532C16.0752 4.00996 16.797 4.0771 17.5032 4.22876C19.2032 4.58876 19.1432 5.95876 19.0732 7.53876C19.0732 7.99876 19.0232 8.53876 19.0232 9.15876C19.0232 9.30876 19.0232 9.46876 19.0232 9.63876C18.9838 10.0741 19.0142 10.513 19.1132 10.9388C19.9457 10.2423 20.6468 9.40239 21.1832 8.45876C21.7621 7.5665 22.2703 6.63031 22.7032 5.65876C22.835 5.35148 23.061 5.09395 23.3485 4.92324C23.636 4.75253 23.9703 4.67743 24.3032 4.70876H28.5832C28.7095 4.6967 28.8368 4.6967 28.9632 4.70876C29.9632 4.70876 30.5532 4.99876 30.7932 5.55876C31.0332 6.11876 30.9632 7.21876 28.4332 10.1688L27.4332 11.2988C26.9487 11.7692 26.5314 12.3042 26.1932 12.8888C26.5719 13.3193 27.0018 13.7022 27.4732 14.0288C28.6224 14.8948 29.6339 15.9298 30.4732 17.0988C30.67 17.3261 30.7988 17.6042 30.8447 17.9014C30.8907 18.1985 30.8521 18.5026 30.7332 18.7788C30.5236 19.0846 30.2432 19.3353 29.9159 19.5094C29.5885 19.6836 29.2239 19.776 28.8532 19.7788L25.0632 19.8288L24.8332 19.7888ZM19.5232 14.9488C20.4232 14.9488 21.2032 15.7388 22.0332 16.5688C22.4815 17.0583 22.9848 17.4946 23.5332 17.8688C23.9478 18.1445 24.4352 18.2907 24.9332 18.2888H25.0332L28.8332 18.2388C29.0206 18.228 29.2041 18.1804 29.3732 18.0988L29.2732 17.9388C28.5162 16.9072 27.6134 15.991 26.5932 15.2188C25.4032 14.2188 24.7932 13.7488 24.7232 12.9788C24.6532 12.2088 25.2132 11.5388 26.3332 10.2688L27.3332 9.15876C28.1774 8.29762 28.8705 7.30031 29.3832 6.20876C29.16 6.19553 28.9363 6.19553 28.7132 6.20876H24.3432C24.2641 6.1911 24.1822 6.1911 24.1032 6.20876C23.6403 7.27021 23.0883 8.29052 22.4532 9.25876C20.5632 12.0788 19.6732 12.4588 19.0432 12.4588C18.8478 12.4588 18.6555 12.4107 18.4832 12.3188C17.4832 11.7488 17.4832 10.4788 17.5432 9.55876C17.5432 9.40876 17.5432 9.25876 17.5432 9.12876C17.5432 8.47876 17.5432 7.91876 17.5932 7.43876C17.6732 5.75876 17.5932 5.74876 17.2132 5.65876C16.6009 5.53778 15.9771 5.48413 15.3532 5.49876H14.6632C14.0282 5.48564 13.3932 5.51907 12.7632 5.59876C12.8586 5.66907 12.9429 5.75335 13.0132 5.84876C13.4256 6.4991 13.6313 7.25917 13.6032 8.02876C13.7332 9.67876 13.6632 11.8288 12.6032 12.3488C12.4155 12.4366 12.2104 12.481 12.0032 12.4788C11.0732 12.4788 10.1532 11.5988 8.58316 9.21876C7.98068 8.30748 7.4427 7.35515 6.97316 6.36876L6.89316 6.26876C6.79218 6.21729 6.68446 6.18026 6.57316 6.15876H2.57316H2.50316C3.09316 7.37876 5.89316 12.7788 9.02316 15.6088C10.7807 17.2235 13.0579 18.1563 15.4432 18.2388H17.2932C17.3875 18.2186 17.4785 18.1849 17.5632 18.1388C17.5632 18.1388 17.5632 18.1388 17.5632 18.0488C17.5632 17.7788 17.5632 15.4488 19.1432 15.0488C19.2655 15.0006 19.393 14.967 19.5232 14.9488Z" fill="#192144"/>
</svg>
