<svg width="18" height="18" fill="none" xmlns="http://www.w3.org/2000/svg"><g opacity=".3" fill="#161C35"><path d="M8.974 7.424c0 .189.154.337.342.337a.7.7 0 0 1 .703.696.34.34 0 0 0 .341.337.34.34 0 0 0 .342-.337 1.38 1.38 0 0 0-1.386-1.37.34.34 0 0 0-.342.337Zm5.558 1.37a.338.338 0 0 0 .341-.337c0-3.031-2.492-5.495-5.557-5.495a.34.34 0 0 0-.342.338.34.34 0 0 0 .342.337c2.69 0 4.874 2.164 4.874 4.82a.34.34 0 0 0 .342.337Z"/><path d="M12.105 8.457a.34.34 0 0 0 .341.337.34.34 0 0 0 .341-.337c0-1.894-1.556-3.433-3.471-3.433a.34.34 0 0 0-.342.338c0 .189.154.337.342.337 1.54 0 2.789 1.239 2.789 2.758ZM9.315.9a.34.34 0 0 0-.34.337.34.34 0 0 0 .34.338c3.841 0 6.965 3.088 6.965 6.882 0 .185.15.337.341.337a.34.34 0 0 0 .341-.337C16.962 4.289 13.532.9 9.316.9Zm3.336 11.114-.447.24c-.755.408-1.342 1.527-2.273.684L7.5 10.5 5.4 8.457c-1.055-1.334.126-1.65.54-2.4l.242-.439c.273-.5.372-1.06.29-1.62a2.557 2.557 0 0 0-.744-1.475 2.636 2.636 0 0 0-1.868-.762c-.706 0-1.372.27-1.87.762l-.175.176c-.921.911-1.027 2.48-.3 4.425.686 1.856 2.069 3.867 3.885 5.663 2.769 2.737 5.851 4.313 8.063 4.313.874 0 1.615-.246 2.14-.766l.178-.176c.495-.489.772-1.144.775-1.85a2.636 2.636 0 0 0-.775-1.845 2.683 2.683 0 0 0-3.13-.45Z"/></g></svg>