<svg width="32" height="32" fill="none" xmlns="http://www.w3.org/2000/svg"><path d="m20.275 15.587-6-4A.5.5 0 0 0 13.5 12v8a.488.488 0 0 0 .262.437c.074.038.155.06.238.063a.45.45 0 0 0 .275-.088l6-4a.488.488 0 0 0 0-.825ZM14.5 19.062v-6.125L19.1 16l-4.6 3.062ZM28.813 8.85a2.55 2.55 0 0 0-1.513-1.7c-4.225-1.625-11.012-1.6-11.3-1.6-.287 0-7.075-.025-11.3 1.6a2.55 2.55 0 0 0-1.513 1.7C2.876 10.062 2.5 12.287 2.5 16c0 3.712.375 5.937.688 7.15a2.55 2.55 0 0 0 1.512 1.7c4.225 1.625 11.012 1.6 11.3 1.6h.087c.863 0 7.2-.05 11.213-1.6a2.55 2.55 0 0 0 1.512-1.7c.313-1.213.688-3.438.688-7.15 0-3.713-.375-5.938-.688-7.15Zm-.976 14.05a1.5 1.5 0 0 1-.9 1.012C22.887 25.475 16.075 25.45 16 25.45c-.075 0-6.887.025-10.938-1.538a1.5 1.5 0 0 1-.9-1.012c-.3-1.163-.662-3.3-.662-6.9 0-3.6.362-5.738.662-6.9a1.5 1.5 0 0 1 .9-1.013C9.113 6.525 15.925 6.55 16 6.55c.075 0 6.887-.025 10.938 1.537a1.5 1.5 0 0 1 .9 1.013c.3 1.162.662 3.3.662 6.9 0 3.6-.363 5.737-.663 6.9Z" fill="#000"/></svg>