<svg width="168" height="42" fill="none" xmlns="http://www.w3.org/2000/svg"><path d="M78.016 10.62 44.736 42 32.59 1.77l45.427 8.85Z" fill="#FF8D30"/><ellipse cx="78.624" cy="28.474" rx="3.613" ry="3.572" fill="#88BFEB"/><ellipse cx="92.85" cy="18.086" rx="12.594" ry="12.45" fill="#EB9898"/><path fill="#72A73E" d="m85.439 19.575 43.818-16.03 8.258 22.06-43.818 16.029z"/><ellipse cx="91.334" cy="34.141" rx="2.117" ry="2.093" fill="#FFBD30"/><ellipse rx="18.919" ry="7.587" transform="matrix(.97025 .24212 -.24742 .9689 132.047 28.05)" fill="#8EC7F5"/><ellipse cx="146.385" cy="10.256" rx="2.153" ry="2.128" fill="#FFBD30"/><ellipse cx="153.101" cy="7.727" rx="2.153" ry="2.128" fill="#FFBD30"/><path d="M3.342 35.35h4.99v2.319a1 1 0 0 1-1 1h-2.99a1 1 0 0 1-1-1v-2.32Zm30.861 0h4.991v2.319a1 1 0 0 1-1 1h-2.99a1 1 0 0 1-1-1v-2.32Z" fill="#1D2959"/><path fill-rule="evenodd" clip-rule="evenodd" d="M23.92 2.938c-.973-.384-2.036-.693-2.808-.677-.726.014-1.721.325-2.629.7-.508.21-1.01.44-1.493.702l-.003.002a1.187 1.187 0 0 1-1.609-.462 1.175 1.175 0 0 1 .464-1.6c.166-.091.335-.177.505-.262.306-.15.735-.353 1.23-.557.948-.391 2.29-.76 3.488-.783 1.274-.025 2.712.346 3.728.747.634.25 1.26.527 1.86.849h.001c.575.31.79 1.024.478 1.597a1.199 1.199 0 0 1-1.608.474 17.92 17.92 0 0 0-1.604-.73Z" fill="#8A4A38"/><path fill-rule="evenodd" clip-rule="evenodd" d="M15.993 1.45a.962.962 0 0 0-.962.961v.615c0 .442.36.8.802.8h.021v3.068h.84v-3.09h-.22a1.189 1.189 0 0 0-.228-2.354h-.253Zm10.52 0c.53 0 .961.43.961.961v.615a.801.801 0 0 1-.801.8h-.022v3.068h-.839v-3.09h.219a1.189 1.189 0 0 1 .228-2.354h.254Z" fill="#F6EF3E"/><path d="M0 15.52a9 9 0 0 1 9-9h24.54a9 9 0 0 1 9 9v19.829H0V15.52Z" fill="#8A4A38"/><ellipse cx="6.684" cy="27.928" rx="4.167" ry="4.121" fill="#EF9A9A"/><ellipse rx="4.016" ry="7.727" transform="matrix(.70085 -.71331 .72133 .69259 32.766 28.07)" fill="#93C6EB"/><path fill="#C2DEA3" d="m16.396 17.905 9.432-9.924 5.588 5.19-9.432 9.924z"/><rect width="6.956" height="5.217" rx="1" transform="matrix(.7339 .67927 -.68766 .72603 8.785 11.14)" fill="#C49A6C"/><path fill="#F57B20" d="M8.333 19.362H14.2v16.8H8.333z"/><path d="M8.333 5.434h5.866v14.548a2.933 2.933 0 1 1-5.867 0V5.434Z" fill="#F6A725"/><path fill="#F6EF3E" d="M7.519 18.042h7.499v1.649H7.519z"/><path fill="#F57B20" d="M28.346 19.362h5.867v16.8h-5.867z"/><path d="M28.346 5.434h5.867v14.548a2.933 2.933 0 1 1-5.867 0V5.434Z" fill="#F6A725"/><path fill="#F6EF3E" d="M27.533 18.042h7.499v1.649h-7.499z"/><g filter="url(#a)" fill="#192144"><path d="M164.789 19.057c.807-.507 1.211-1.29 1.211-2.347 0-1.382-.581-2.467-1.743-3.257-1.13-.803-2.462-1.205-3.996-1.205a6.998 6.998 0 0 0-4.116 1.311c-1.227.86-1.841 2.009-1.841 3.447 0 .536.17.98.509 1.332.339.339.823.508 1.453.508.613 0 1.081-.17 1.404-.508.339-.352.509-.796.509-1.332-.033-.409.105-.825.411-1.248.307-.437.864-.655 1.671-.655.678.014 1.162.183 1.453.507.307.325.444.649.412.973 0 .226-.081.451-.242.677a2.251 2.251 0 0 1-.509.528c-.161.127-.428.31-.799.55-.371.24-.63.409-.775.508-.839.606-1.259 1.41-1.259 2.41 0 .494.177.91.533 1.248.371.324.863.486 1.477.486.613 0 1.097-.162 1.453-.486.371-.338.557-.754.557-1.248 0-.211.04-.408.121-.592.08-.183.209-.352.387-.507.194-.155.355-.282.484-.38a9.6 9.6 0 0 1 .63-.382c.291-.154.492-.267.605-.338Zm-20.691 4.453 4.289-5.25c.44-.635 1.037-.987 1.791-1.06.754-.086 1.413.094 1.979.54.566.447.833 1.045.801 1.794v7.519c0 .475-.188.878-.565 1.21-.362.317-.802.475-1.32.475a2.02 2.02 0 0 1-1.343-.475 1.581 1.581 0 0 1-.542-1.21v-4.667l-4.289 5.25c-.44.634-1.037.987-1.791 1.059-.754.086-1.414-.094-1.979-.54-.566-.447-.833-1.045-.801-1.794v-7.497c0-.475.18-.878.542-1.21a1.966 1.966 0 0 1 1.343-.497c.518 0 .958.166 1.319.497.378.332.566.735.566 1.21v4.645Z"/><path fill-rule="evenodd" clip-rule="evenodd" d="M124.817 26.98v-8.158c0-.469-.199-.872-.595-1.21a1.932 1.932 0 0 0-1.356-.527c-.507 0-.951.176-1.332.528-.38.337-.571.74-.571 1.21v-.199c-.19-.44-.571-.813-1.141-1.121-.571-.323-1.221-.484-1.951-.484-1.427 0-2.743.52-3.948 1.561-1.174 1.04-1.76 2.47-1.76 4.288 0 1.861.579 3.305 1.736 4.331 1.158 1.026 2.482 1.54 3.972 1.54.73 0 1.372-.133 1.927-.397.555-.278.959-.608 1.213-.99.095.397.317.726.666.99.349.25.745.374 1.189.374a1.98 1.98 0 0 0 1.356-.506c.396-.337.595-.747.595-1.23Zm-6.084-1.5c1.3 0 2.354-1.128 2.354-2.52 0-1.393-1.054-2.521-2.354-2.521s-2.353 1.128-2.353 2.52c0 1.393 1.053 2.521 2.353 2.521Z"/><path d="M107.15 21.311v-2.358c0-.479.197-.885.589-1.219a2.008 2.008 0 0 1 1.375-.522c.523 0 .981.174 1.374.522.392.334.589.74.589 1.22v8.078c0 .479-.197.885-.589 1.219-.377.334-.835.5-1.374.5a2.09 2.09 0 0 1-1.399-.5c-.376-.334-.565-.74-.565-1.22V24.64h-4.245v2.393c0 .479-.196.885-.589 1.219-.376.334-.834.5-1.374.5-.54 0-1.006-.166-1.398-.5-.377-.334-.565-.74-.565-1.22v-8.078c0-.479.196-.885.59-1.219.392-.348.85-.522 1.373-.522.524 0 .982.174 1.374.522.393.334.589.74.589 1.22v2.357h4.245Zm-10.14-4.099c.384 0 .713.144.988.433.275.288.412.954.412 1.358 0 .404-.137.822-.412 1.11-.275.289-.604.39-.989.39h-3.29v6.57c0 1.243-1.105 1.679-2.212 1.679-1.029 0-2.01-.551-2.01-1.667l.034-9.873h7.478Zm-23.473-4.964v14.668c0 .484-.266.894-.634 1.231-.353.337-.907.506-1.413.506s-1.237-.169-1.605-.506a1.639 1.639 0 0 1-.53-1.231V15.559h-5.92v11.357c0 .484-.183.894-.551 1.231-.353.337-1.071.506-1.577.506s-1.17-.169-1.537-.506a1.64 1.64 0 0 1-.53-1.231V12.248h14.297ZM86.64 26.953c-1.198 1.112-2.8 1.668-4.807 1.668-2.007 0-3.6-.556-4.78-1.668-1.215-1.129-1.822-2.54-1.822-4.233 0-1.71.607-3.12 1.822-4.232 1.18-1.112 2.773-1.668 4.78-1.668s3.61.556 4.806 1.668c1.198 1.128 1.796 2.54 1.796 4.232 0 1.693-.598 3.104-1.796 4.233Zm-3.117-5.976a2.049 2.049 0 0 0-1.241-.622 2.57 2.57 0 0 0-1.373.125 2.479 2.479 0 0 0-1.083.846c-.282.398-.405.863-.37 1.394 0 .697.22 1.278.66 1.743.458.448 1.03.672 1.717.672.704 0 1.276-.215 1.717-.647.44-.448.66-1.037.66-1.768 0-.697-.229-1.278-.687-1.742Zm46.915-3.82c2.251 0 8.249.033 8.249.033s.004 7.252.004 9.786c0 .487-.202.907-.607 1.26-.387.335-.736.503-1.325.503s-.889.044-1.294-.292c-.386-.352-.742-.984-.742-1.47V20.43h-2.732c0 4.693.001 5.724-1.746 7.402-.644.605-1.472.907-2.484.907-.608 0-.964-.144-1.351-.48-.386-.352-.686-.915-.686-1.435 0-1.12.237-1.566.844-2.297 1.743 0 1.667-.417 1.558-3.593V18.92a82.35 82.35 0 0 1 .109-1.763h2.203Zm32.403 9.113c0 1.363-1.167 2.468-2.607 2.468-1.44 0-2.607-1.105-2.607-2.467 0-1.363 1.167-2.467 2.607-2.467 1.44 0 2.607 1.104 2.607 2.467Z"/></g><defs><filter id="a" x="57.241" y="11.248" width="110.759" height="20.504" filterUnits="userSpaceOnUse" color-interpolation-filters="sRGB"><feFlood flood-opacity="0" result="BackgroundImageFix"/><feColorMatrix in="SourceAlpha" values="0 0 0 0 0 0 0 0 0 0 0 0 0 0 0 0 0 0 127 0" result="hardAlpha"/><feOffset dy="1"/><feGaussianBlur stdDeviation="1"/><feColorMatrix values="0 0 0 0 0 0 0 0 0 0 0 0 0 0 0 0 0 0 0.3 0"/><feBlend in2="BackgroundImageFix" result="effect1_dropShadow_13528_1291"/><feBlend in="SourceGraphic" in2="effect1_dropShadow_13528_1291" result="shape"/></filter></defs></svg>